<svg width="1029" height="448" viewBox="0 0 1029 448" fill="none" xmlns="http://www.w3.org/2000/svg">
<path d="M922.412 0V7.99998C913.346 8.26665 906.412 9.33332 901.612 11.2C897.079 12.8 894.012 16 892.412 20.8C890.812 25.3333 890.012 32.5333 890.012 42.4V240.8C890.012 250.4 890.812 257.6 892.412 262.4C894.012 267.2 897.079 270.4 901.612 272C906.412 273.333 913.346 274 922.412 274H951.612C964.146 274 974.279 272.667 982.012 270C990.012 267.333 996.279 263.2 1000.81 257.6C1005.61 251.733 1009.21 244 1011.61 234.4C1014.01 224.8 1015.88 213.067 1017.21 199.2H1026.41C1025.61 207.467 1025.21 218.4 1025.21 232C1025.21 237.067 1025.35 244.4 1025.61 254C1026.15 263.333 1026.95 273.067 1028.01 283.2C1014.41 282.667 999.079 282.4 982.012 282.4C964.946 282.133 949.746 282 936.412 282C930.546 282 922.946 282 913.612 282C904.546 282 894.679 282.133 884.012 282.4C873.346 282.4 862.546 282.533 851.612 282.8C840.679 282.8 830.279 282.933 820.412 283.2V275.2C829.479 274.667 836.279 273.6 840.812 272C845.612 270.4 848.812 267.2 850.412 262.4C852.012 257.6 852.812 250.4 852.812 240.8V42.4C852.812 32.5333 852.012 25.3333 850.412 20.8C848.812 16 845.612 12.8 840.812 11.2C836.279 9.33332 829.479 8.26665 820.412 7.99998V0C826.012 0.266663 833.346 0.533325 842.412 0.799988C851.479 1.06665 861.212 1.19998 871.612 1.19998C880.946 1.19998 890.146 1.06665 899.212 0.799988C908.546 0.533325 916.279 0.266663 922.412 0Z" fill="#232323"/>
<path d="M675.256 0V7.99998C666.189 8.26665 659.256 9.33332 654.456 11.2C649.923 12.8 646.856 16 645.256 20.8C643.656 25.3333 642.856 32.5333 642.856 42.4V240.8C642.856 250.4 643.656 257.6 645.256 262.4C646.856 267.2 649.923 270.4 654.456 272C659.256 273.333 666.189 274 675.256 274H704.456C716.989 274 727.123 272.667 734.856 270C742.856 267.333 749.123 263.2 753.656 257.6C758.456 251.733 762.056 244 764.456 234.4C766.856 224.8 768.723 213.067 770.056 199.2H779.256C778.456 207.467 778.056 218.4 778.056 232C778.056 237.067 778.189 244.4 778.456 254C778.989 263.333 779.789 273.067 780.856 283.2C767.256 282.667 751.923 282.4 734.856 282.4C717.789 282.133 702.589 282 689.256 282C683.389 282 675.789 282 666.456 282C657.389 282 647.523 282.133 636.856 282.4C626.189 282.4 615.389 282.533 604.456 282.8C593.523 282.8 583.123 282.933 573.256 283.2V275.2C582.323 274.667 589.123 273.6 593.656 272C598.456 270.4 601.656 267.2 603.256 262.4C604.856 257.6 605.656 250.4 605.656 240.8V42.4C605.656 32.5333 604.856 25.3333 603.256 20.8C601.656 16 598.456 12.8 593.656 11.2C589.123 9.33332 582.323 8.26665 573.256 7.99998V0C578.856 0.266663 586.189 0.533325 595.256 0.799988C604.323 1.06665 614.056 1.19998 624.456 1.19998C633.789 1.19998 642.989 1.06665 652.056 0.799988C661.389 0.533325 669.123 0.266663 675.256 0Z" fill="#232323"/>
<path d="M511.71 0V7.99998C502.643 8.26665 495.709 9.33332 490.909 11.2C486.376 12.8 483.31 16 481.71 20.8C480.109 25.3333 479.309 32.5333 479.309 42.4V240.8C479.309 250.4 480.109 257.6 481.71 262.4C483.31 267.2 486.376 270.4 490.909 272C495.709 273.6 502.643 274.667 511.71 275.2V283.2C505.576 282.667 497.843 282.4 488.509 282.4C479.443 282.133 470.243 282 460.909 282C450.509 282 440.776 282.133 431.709 282.4C422.643 282.4 415.309 282.667 409.709 283.2V275.2C418.776 274.667 425.576 273.6 430.109 272C434.909 270.4 438.109 267.2 439.709 262.4C441.309 257.6 442.109 250.4 442.109 240.8V42.4C442.109 32.5333 441.309 25.3333 439.709 20.8C438.109 16 434.909 12.8 430.109 11.2C425.576 9.33332 418.776 8.26665 409.709 7.99998V0C415.309 0.266663 422.643 0.533325 431.709 0.799988C440.776 1.06665 450.509 1.19998 460.909 1.19998C470.243 1.19998 479.443 1.06665 488.509 0.799988C497.843 0.533325 505.576 0.266663 511.71 0Z" fill="#232323"/>
<path d="M365.6 0V7.99998C360.533 9.06665 354.933 12.1333 348.8 17.2C342.667 22 337.733 30.5333 334 42.8L258.4 285.2C257.867 285.2 257.333 285.2 256.8 285.2C256.267 285.2 255.733 285.2 255.2 285.2C254.667 285.2 254.133 285.2 253.6 285.2C253.067 285.2 252.533 285.2 252 285.2L167.2 33.6C163.733 23.2 159.867 16.4 155.6 13.2C151.333 9.99999 147.333 8.26665 143.6 7.99998V0C148.4 0.266663 154.4 0.533325 161.6 0.799988C168.8 1.06665 175.733 1.19998 182.4 1.19998C192.8 1.19998 202.533 1.06665 211.6 0.799988C220.667 0.533325 228 0.266663 233.6 0V7.99998C225.6 8.26665 219.2 9.06665 214.4 10.4C209.867 11.7333 207.2 14.6666 206.4 19.2C205.867 23.7333 207.2 31.2 210.4 41.6L270 226L264.4 230.8L317.2 64.8C322 50.1333 324.133 38.8 323.6 30.8C323.333 22.5333 320.4 16.8 314.8 13.6C309.2 10.1333 300.8 8.26665 289.6 7.99998V0C297.333 0.266663 305.2 0.533325 313.2 0.799988C321.2 1.06665 328.667 1.19998 335.6 1.19998C342.533 1.19998 348.267 1.06665 352.8 0.799988C357.333 0.533325 361.6 0.266663 365.6 0ZM86 0V7.99998C79.0667 8.53331 74 9.86665 70.8 12C67.8667 14.1333 66.4 17.6 66.4 22.4C66.6667 26.9333 68.1333 33.3333 70.8 41.6L132.8 230.8L122.8 240.8L178.8 62L184.8 71.6L118.8 285.2C118.267 285.2 117.733 285.2 117.2 285.2C116.667 285.2 116.133 285.2 115.6 285.2C115.067 285.2 114.533 285.2 114 285.2C113.467 285.2 112.933 285.2 112.4 285.2L27.6 33.6C24.1333 23.2 19.7333 16.4 14.4 13.2C9.06667 9.99999 4.26667 8.26665 0 7.99998V0C5.33333 0.266663 11.8667 0.533325 19.6 0.799988C27.6 1.06665 35.3333 1.19998 42.8 1.19998C51.6 1.19998 59.7333 1.06665 67.2 0.799988C74.9333 0.533325 81.2 0.266663 86 0Z" fill="#232323"/>
<path d="M877.092 447.502C874.056 447.502 871.328 446.82 868.908 445.456C866.488 444.048 864.574 442.024 863.166 439.384C861.758 436.744 861.054 433.554 861.054 429.814C861.054 426.03 861.758 422.84 863.166 420.244C864.618 417.604 866.554 415.602 868.974 414.238C871.394 412.874 874.1 412.192 877.092 412.192C880.392 412.192 883.34 412.94 885.936 414.436C888.576 415.888 890.644 417.934 892.14 420.574C893.636 423.214 894.384 426.294 894.384 429.814C894.384 433.29 893.636 436.37 892.14 439.054C890.644 441.694 888.576 443.762 885.936 445.258C883.34 446.754 880.392 447.502 877.092 447.502ZM859.206 447.172V398.2H863.892V422.752L863.232 429.748L863.694 436.744V447.172H859.206ZM876.762 443.344C879.226 443.344 881.426 442.794 883.362 441.694C885.298 440.55 886.838 438.966 887.982 436.942C889.126 434.874 889.698 432.498 889.698 429.814C889.698 427.086 889.126 424.71 887.982 422.686C886.838 420.662 885.298 419.1 883.362 418C881.426 416.856 879.226 416.284 876.762 416.284C874.298 416.284 872.076 416.856 870.096 418C868.16 419.1 866.62 420.662 865.476 422.686C864.376 424.71 863.826 427.086 863.826 429.814C863.826 432.498 864.376 434.874 865.476 436.942C866.62 438.966 868.16 440.55 870.096 441.694C872.076 442.794 874.298 443.344 876.762 443.344Z" fill="black"/>
<path d="M841.991 447.172V439.516L841.793 438.262V425.458C841.793 422.51 840.957 420.244 839.285 418.66C837.657 417.076 835.215 416.284 831.959 416.284C829.715 416.284 827.581 416.658 825.557 417.406C823.533 418.154 821.817 419.144 820.409 420.376L818.297 416.878C820.057 415.382 822.169 414.238 824.633 413.446C827.097 412.61 829.693 412.192 832.421 412.192C836.909 412.192 840.363 413.314 842.783 415.558C845.247 417.758 846.479 421.124 846.479 425.656V447.172H841.991ZM830.045 447.502C827.449 447.502 825.183 447.084 823.247 446.248C821.355 445.368 819.903 444.18 818.891 442.684C817.879 441.144 817.373 439.384 817.373 437.404C817.373 435.6 817.791 433.972 818.627 432.52C819.507 431.024 820.915 429.836 822.851 428.956C824.831 428.032 827.471 427.57 830.771 427.57H842.717V431.068H830.903C827.559 431.068 825.227 431.662 823.907 432.85C822.631 434.038 821.993 435.512 821.993 437.272C821.993 439.252 822.763 440.836 824.303 442.024C825.843 443.212 827.999 443.806 830.771 443.806C833.411 443.806 835.677 443.212 837.569 442.024C839.505 440.792 840.913 439.032 841.793 436.744L842.849 439.978C841.969 442.266 840.429 444.092 838.229 445.456C836.073 446.82 833.345 447.502 830.045 447.502Z" fill="black"/>
<path d="M782.401 447.172V400.972H787.285V442.948H813.157V447.172H782.401Z" fill="black"/>
<path d="M737.647 447.172V412.522H742.135V421.96L741.673 420.31C742.641 417.67 744.269 415.668 746.557 414.304C748.845 412.896 751.683 412.192 755.071 412.192V416.746C754.895 416.746 754.719 416.746 754.543 416.746C754.367 416.702 754.191 416.68 754.015 416.68C750.363 416.68 747.503 417.802 745.435 420.046C743.367 422.246 742.333 425.392 742.333 429.484V447.172H737.647Z" fill="black"/>
<path d="M712.533 447.502C708.925 447.502 705.757 446.754 703.029 445.258C700.301 443.718 698.167 441.628 696.627 438.988C695.087 436.304 694.317 433.246 694.317 429.814C694.317 426.382 695.043 423.346 696.495 420.706C697.991 418.066 700.015 415.998 702.567 414.502C705.163 412.962 708.067 412.192 711.279 412.192C714.535 412.192 717.417 412.94 719.925 414.436C722.477 415.888 724.479 417.956 725.931 420.64C727.383 423.28 728.109 426.338 728.109 429.814C728.109 430.034 728.087 430.276 728.043 430.54C728.043 430.76 728.043 431.002 728.043 431.266H697.881V427.768H725.535L723.687 429.154C723.687 426.646 723.137 424.424 722.037 422.488C720.981 420.508 719.529 418.968 717.681 417.868C715.833 416.768 713.699 416.218 711.279 416.218C708.903 416.218 706.769 416.768 704.877 417.868C702.985 418.968 701.511 420.508 700.455 422.488C699.399 424.468 698.871 426.734 698.871 429.286V430.012C698.871 432.652 699.443 434.984 700.587 437.008C701.775 438.988 703.403 440.55 705.471 441.694C707.583 442.794 709.981 443.344 712.665 443.344C714.777 443.344 716.735 442.97 718.539 442.222C720.387 441.474 721.971 440.33 723.291 438.79L725.931 441.826C724.391 443.674 722.455 445.082 720.123 446.05C717.835 447.018 715.305 447.502 712.533 447.502Z" fill="black"/>
<path d="M666.879 447.502C663.579 447.502 660.609 446.754 657.969 445.258C655.373 443.762 653.327 441.694 651.831 439.054C650.335 436.37 649.587 433.29 649.587 429.814C649.587 426.294 650.335 423.214 651.831 420.574C653.327 417.934 655.373 415.888 657.969 414.436C660.609 412.94 663.579 412.192 666.879 412.192C669.915 412.192 672.621 412.874 674.997 414.238C677.417 415.602 679.331 417.604 680.739 420.244C682.191 422.84 682.917 426.03 682.917 429.814C682.917 433.554 682.213 436.744 680.805 439.384C679.397 442.024 677.483 444.048 675.063 445.456C672.687 446.82 669.959 447.502 666.879 447.502ZM667.209 443.344C669.673 443.344 671.873 442.794 673.809 441.694C675.789 440.55 677.329 438.966 678.429 436.942C679.573 434.874 680.145 432.498 680.145 429.814C680.145 427.086 679.573 424.71 678.429 422.686C677.329 420.662 675.789 419.1 673.809 418C671.873 416.856 669.673 416.284 667.209 416.284C664.789 416.284 662.611 416.856 660.675 418C658.739 419.1 657.199 420.662 656.055 422.686C654.911 424.71 654.339 427.086 654.339 429.814C654.339 432.498 654.911 434.874 656.055 436.942C657.199 438.966 658.739 440.55 660.675 441.694C662.611 442.794 664.789 443.344 667.209 443.344ZM680.277 447.172V436.744L680.739 429.748L680.079 422.752V398.2H684.765V447.172H680.277Z" fill="black"/>
<path d="M635.869 447.172V439.516L635.671 438.262V425.458C635.671 422.51 634.835 420.244 633.163 418.66C631.535 417.076 629.093 416.284 625.837 416.284C623.593 416.284 621.459 416.658 619.435 417.406C617.411 418.154 615.695 419.144 614.287 420.376L612.175 416.878C613.935 415.382 616.047 414.238 618.511 413.446C620.975 412.61 623.571 412.192 626.299 412.192C630.787 412.192 634.241 413.314 636.661 415.558C639.125 417.758 640.357 421.124 640.357 425.656V447.172H635.869ZM623.923 447.502C621.327 447.502 619.061 447.084 617.125 446.248C615.233 445.368 613.781 444.18 612.769 442.684C611.757 441.144 611.251 439.384 611.251 437.404C611.251 435.6 611.669 433.972 612.505 432.52C613.385 431.024 614.793 429.836 616.729 428.956C618.709 428.032 621.349 427.57 624.649 427.57H636.595V431.068H624.781C621.437 431.068 619.105 431.662 617.785 432.85C616.509 434.038 615.871 435.512 615.871 437.272C615.871 439.252 616.641 440.836 618.181 442.024C619.721 443.212 621.877 443.806 624.649 443.806C627.289 443.806 629.555 443.212 631.447 442.024C633.383 440.792 634.791 439.032 635.671 436.744L636.727 439.978C635.847 442.266 634.307 444.092 632.107 445.456C629.951 446.82 627.223 447.502 623.923 447.502Z" fill="black"/>
<path d="M590.008 447.502C586.4 447.502 583.232 446.754 580.504 445.258C577.776 443.718 575.642 441.628 574.102 438.988C572.562 436.304 571.792 433.246 571.792 429.814C571.792 426.382 572.518 423.346 573.97 420.706C575.466 418.066 577.49 415.998 580.042 414.502C582.638 412.962 585.542 412.192 588.754 412.192C592.01 412.192 594.892 412.94 597.4 414.436C599.952 415.888 601.954 417.956 603.406 420.64C604.858 423.28 605.584 426.338 605.584 429.814C605.584 430.034 605.562 430.276 605.518 430.54C605.518 430.76 605.518 431.002 605.518 431.266H575.356V427.768H603.01L601.162 429.154C601.162 426.646 600.612 424.424 599.512 422.488C598.456 420.508 597.004 418.968 595.156 417.868C593.308 416.768 591.174 416.218 588.754 416.218C586.378 416.218 584.244 416.768 582.352 417.868C580.46 418.968 578.986 420.508 577.93 422.488C576.874 424.468 576.346 426.734 576.346 429.286V430.012C576.346 432.652 576.918 434.984 578.062 437.008C579.25 438.988 580.878 440.55 582.946 441.694C585.058 442.794 587.456 443.344 590.14 443.344C592.252 443.344 594.21 442.97 596.014 442.222C597.862 441.474 599.446 440.33 600.766 438.79L603.406 441.826C601.866 443.674 599.93 445.082 597.598 446.05C595.31 447.018 592.78 447.502 590.008 447.502Z" fill="black"/>
<path d="M537.931 447.172V400.972H542.815V442.948H568.687V447.172H537.931Z" fill="black"/>
<path d="M491.735 447.172V405.196H475.499V400.972H512.855V405.196H496.619V447.172H491.735Z" fill="black"/>
<path d="M462.843 447.172V400.972H467.727V447.172H462.843Z" fill="black"/>
<path d="M388.229 447.172L409.349 400.972H414.167L435.287 447.172H430.139L410.735 403.81H412.715L393.311 447.172H388.229ZM396.545 434.83L397.997 430.87H424.859L426.311 434.83H396.545Z" fill="black"/>
<path d="M341.738 447.172V400.972H360.548C365.476 400.972 369.788 401.962 373.484 403.942C377.224 405.878 380.128 408.584 382.196 412.06C384.264 415.536 385.298 419.54 385.298 424.072C385.298 428.604 384.264 432.608 382.196 436.084C380.128 439.56 377.224 442.288 373.484 444.268C369.788 446.204 365.476 447.172 360.548 447.172H341.738ZM346.622 442.948H360.284C364.376 442.948 367.918 442.156 370.91 440.572C373.946 438.944 376.3 436.722 377.972 433.906C379.644 431.046 380.48 427.768 380.48 424.072C380.48 420.332 379.644 417.054 377.972 414.238C376.3 411.422 373.946 409.222 370.91 407.638C367.918 406.01 364.376 405.196 360.284 405.196H346.622V442.948Z" fill="black"/>
<path d="M301.943 421.63H326.363V425.788H301.943V421.63ZM302.471 442.948H330.257V447.172H297.587V400.972H329.267V405.196H302.471V442.948Z" fill="black"/>
<path d="M269.72 447.568C266.288 447.568 262.988 447.018 259.82 445.918C256.696 444.774 254.276 443.322 252.56 441.562L254.474 437.8C256.102 439.384 258.28 440.726 261.008 441.826C263.78 442.882 266.684 443.41 269.72 443.41C272.624 443.41 274.978 443.058 276.782 442.354C278.63 441.606 279.972 440.616 280.808 439.384C281.688 438.152 282.128 436.788 282.128 435.292C282.128 433.488 281.6 432.036 280.544 430.936C279.532 429.836 278.19 428.978 276.518 428.362C274.846 427.702 272.998 427.13 270.974 426.646C268.95 426.162 266.926 425.656 264.902 425.128C262.878 424.556 261.008 423.808 259.292 422.884C257.62 421.96 256.256 420.75 255.2 419.254C254.188 417.714 253.682 415.712 253.682 413.248C253.682 410.96 254.276 408.87 255.464 406.978C256.696 405.042 258.566 403.502 261.074 402.358C263.582 401.17 266.794 400.576 270.71 400.576C273.306 400.576 275.88 400.95 278.432 401.698C280.984 402.402 283.184 403.392 285.032 404.668L283.382 408.562C281.402 407.242 279.29 406.274 277.046 405.658C274.846 405.042 272.712 404.734 270.644 404.734C267.872 404.734 265.584 405.108 263.78 405.856C261.976 406.604 260.634 407.616 259.754 408.892C258.918 410.124 258.5 411.532 258.5 413.116C258.5 414.92 259.006 416.372 260.018 417.472C261.074 418.572 262.438 419.43 264.11 420.046C265.826 420.662 267.696 421.212 269.72 421.696C271.744 422.18 273.746 422.708 275.726 423.28C277.75 423.852 279.598 424.6 281.27 425.524C282.986 426.404 284.35 427.592 285.362 429.088C286.418 430.584 286.946 432.542 286.946 434.962C286.946 437.206 286.33 439.296 285.098 441.232C283.866 443.124 281.974 444.664 279.422 445.852C276.914 446.996 273.68 447.568 269.72 447.568Z" fill="black"/>
<path d="M202.281 447.172L223.401 400.972H228.219L249.339 447.172H244.191L224.787 403.81H226.767L207.363 447.172H202.281ZM210.597 434.83L212.049 430.87H238.911L240.363 434.83H210.597Z" fill="black"/>
<path d="M149.204 447.172L133.628 400.972H138.644L153.23 444.466H150.722L165.77 400.972H170.258L185.108 444.466H182.732L197.45 400.972H202.136L186.56 447.172H181.412L167.222 405.922H168.542L154.286 447.172H149.204Z" fill="black"/>
</svg>
