<svg width="1029" height="459" viewBox="0 0 1029 459" fill="none" xmlns="http://www.w3.org/2000/svg">
<path d="M922.412 0V7.99998C913.346 8.26665 906.412 9.33332 901.612 11.2C897.079 12.8 894.012 16 892.412 20.8C890.812 25.3333 890.012 32.5333 890.012 42.4V240.8C890.012 250.4 890.812 257.6 892.412 262.4C894.012 267.2 897.079 270.4 901.612 272C906.412 273.333 913.346 274 922.412 274H951.612C964.146 274 974.279 272.667 982.012 270C990.012 267.333 996.279 263.2 1000.81 257.6C1005.61 251.733 1009.21 244 1011.61 234.4C1014.01 224.8 1015.88 213.067 1017.21 199.2H1026.41C1025.61 207.467 1025.21 218.4 1025.21 232C1025.21 237.067 1025.35 244.4 1025.61 254C1026.15 263.333 1026.95 273.067 1028.01 283.2C1014.41 282.667 999.079 282.4 982.012 282.4C964.946 282.133 949.746 282 936.412 282C930.546 282 922.946 282 913.612 282C904.546 282 894.679 282.133 884.012 282.4C873.346 282.4 862.546 282.533 851.612 282.8C840.679 282.8 830.279 282.933 820.412 283.2V275.2C829.479 274.667 836.279 273.6 840.812 272C845.612 270.4 848.812 267.2 850.412 262.4C852.012 257.6 852.812 250.4 852.812 240.8V42.4C852.812 32.5333 852.012 25.3333 850.412 20.8C848.812 16 845.612 12.8 840.812 11.2C836.279 9.33332 829.479 8.26665 820.412 7.99998V0C826.012 0.266663 833.346 0.533325 842.412 0.799988C851.479 1.06665 861.212 1.19998 871.612 1.19998C880.946 1.19998 890.146 1.06665 899.212 0.799988C908.546 0.533325 916.279 0.266663 922.412 0Z" fill="#232323"/>
<path d="M675.256 0V7.99998C666.189 8.26665 659.256 9.33332 654.456 11.2C649.923 12.8 646.856 16 645.256 20.8C643.656 25.3333 642.856 32.5333 642.856 42.4V240.8C642.856 250.4 643.656 257.6 645.256 262.4C646.856 267.2 649.923 270.4 654.456 272C659.256 273.333 666.189 274 675.256 274H704.456C716.989 274 727.123 272.667 734.856 270C742.856 267.333 749.123 263.2 753.656 257.6C758.456 251.733 762.056 244 764.456 234.4C766.856 224.8 768.723 213.067 770.056 199.2H779.256C778.456 207.467 778.056 218.4 778.056 232C778.056 237.067 778.189 244.4 778.456 254C778.989 263.333 779.789 273.067 780.856 283.2C767.256 282.667 751.923 282.4 734.856 282.4C717.789 282.133 702.589 282 689.256 282C683.389 282 675.789 282 666.456 282C657.389 282 647.523 282.133 636.856 282.4C626.189 282.4 615.389 282.533 604.456 282.8C593.523 282.8 583.123 282.933 573.256 283.2V275.2C582.323 274.667 589.123 273.6 593.656 272C598.456 270.4 601.656 267.2 603.256 262.4C604.856 257.6 605.656 250.4 605.656 240.8V42.4C605.656 32.5333 604.856 25.3333 603.256 20.8C601.656 16 598.456 12.8 593.656 11.2C589.123 9.33332 582.323 8.26665 573.256 7.99998V0C578.856 0.266663 586.189 0.533325 595.256 0.799988C604.323 1.06665 614.056 1.19998 624.456 1.19998C633.789 1.19998 642.989 1.06665 652.056 0.799988C661.389 0.533325 669.123 0.266663 675.256 0Z" fill="#232323"/>
<path d="M511.71 0V7.99998C502.643 8.26665 495.709 9.33332 490.909 11.2C486.376 12.8 483.31 16 481.71 20.8C480.109 25.3333 479.309 32.5333 479.309 42.4V240.8C479.309 250.4 480.109 257.6 481.71 262.4C483.31 267.2 486.376 270.4 490.909 272C495.709 273.6 502.643 274.667 511.71 275.2V283.2C505.576 282.667 497.843 282.4 488.509 282.4C479.443 282.133 470.243 282 460.909 282C450.509 282 440.776 282.133 431.709 282.4C422.643 282.4 415.309 282.667 409.709 283.2V275.2C418.776 274.667 425.576 273.6 430.109 272C434.909 270.4 438.109 267.2 439.709 262.4C441.309 257.6 442.109 250.4 442.109 240.8V42.4C442.109 32.5333 441.309 25.3333 439.709 20.8C438.109 16 434.909 12.8 430.109 11.2C425.576 9.33332 418.776 8.26665 409.709 7.99998V0C415.309 0.266663 422.643 0.533325 431.709 0.799988C440.776 1.06665 450.509 1.19998 460.909 1.19998C470.243 1.19998 479.443 1.06665 488.509 0.799988C497.843 0.533325 505.576 0.266663 511.71 0Z" fill="#232323"/>
<path d="M365.6 0V7.99998C360.533 9.06665 354.933 12.1333 348.8 17.2C342.667 22 337.733 30.5333 334 42.8L258.4 285.2C257.867 285.2 257.333 285.2 256.8 285.2C256.267 285.2 255.733 285.2 255.2 285.2C254.667 285.2 254.133 285.2 253.6 285.2C253.067 285.2 252.533 285.2 252 285.2L167.2 33.6C163.733 23.2 159.867 16.4 155.6 13.2C151.333 9.99999 147.333 8.26665 143.6 7.99998V0C148.4 0.266663 154.4 0.533325 161.6 0.799988C168.8 1.06665 175.733 1.19998 182.4 1.19998C192.8 1.19998 202.533 1.06665 211.6 0.799988C220.667 0.533325 228 0.266663 233.6 0V7.99998C225.6 8.26665 219.2 9.06665 214.4 10.4C209.867 11.7333 207.2 14.6666 206.4 19.2C205.867 23.7333 207.2 31.2 210.4 41.6L270 226L264.4 230.8L317.2 64.8C322 50.1333 324.133 38.8 323.6 30.8C323.333 22.5333 320.4 16.8 314.8 13.6C309.2 10.1333 300.8 8.26665 289.6 7.99998V0C297.333 0.266663 305.2 0.533325 313.2 0.799988C321.2 1.06665 328.667 1.19998 335.6 1.19998C342.533 1.19998 348.267 1.06665 352.8 0.799988C357.333 0.533325 361.6 0.266663 365.6 0ZM86 0V7.99998C79.0667 8.53331 74 9.86665 70.8 12C67.8667 14.1333 66.4 17.6 66.4 22.4C66.6667 26.9333 68.1333 33.3333 70.8 41.6L132.8 230.8L122.8 240.8L178.8 62L184.8 71.6L118.8 285.2C118.267 285.2 117.733 285.2 117.2 285.2C116.667 285.2 116.133 285.2 115.6 285.2C115.067 285.2 114.533 285.2 114 285.2C113.467 285.2 112.933 285.2 112.4 285.2L27.6 33.6C24.1333 23.2 19.7333 16.4 14.4 13.2C9.06667 9.99999 4.26667 8.26665 0 7.99998V0C5.33333 0.266663 11.8667 0.533325 19.6 0.799988C27.6 1.06665 35.3333 1.19998 42.8 1.19998C51.6 1.19998 59.7333 1.06665 67.2 0.799988C74.9333 0.533325 81.2 0.266663 86 0Z" fill="#232323"/>
<path d="M956.751 458.319C953.049 458.319 949.723 457.487 946.772 455.824C943.821 454.107 941.487 451.639 939.77 448.42C938.053 445.2 937.195 441.31 937.195 436.75C937.195 432.136 938.053 428.246 939.77 425.08C941.541 421.861 943.901 419.42 946.852 417.757C949.803 416.093 953.103 415.262 956.751 415.262C960.775 415.262 964.37 416.174 967.536 417.998C970.755 419.769 973.277 422.263 975.101 425.483C976.925 428.702 977.837 432.458 977.837 436.75C977.837 440.989 976.925 444.744 975.101 448.017C973.277 451.236 970.755 453.758 967.536 455.582C964.37 457.406 960.775 458.319 956.751 458.319ZM934.941 457.916V398.2H940.655V428.139L939.85 436.669L940.414 445.2V457.916H934.941ZM956.349 453.248C959.353 453.248 962.036 452.578 964.397 451.236C966.758 449.841 968.635 447.91 970.03 445.442C971.425 442.92 972.123 440.023 972.123 436.75C972.123 433.423 971.425 430.526 970.03 428.058C968.635 425.59 966.758 423.685 964.397 422.344C962.036 420.949 959.353 420.251 956.349 420.251C953.344 420.251 950.635 420.949 948.22 422.344C945.86 423.685 943.982 425.59 942.587 428.058C941.245 430.526 940.575 433.423 940.575 436.75C940.575 440.023 941.245 442.92 942.587 445.442C943.982 447.91 945.86 449.841 948.22 451.236C950.635 452.578 953.344 453.248 956.349 453.248Z" fill="black"/>
<path d="M913.949 457.916V448.58L913.707 447.051V431.438C913.707 427.843 912.688 425.08 910.649 423.149C908.664 421.217 905.686 420.251 901.716 420.251C898.979 420.251 896.377 420.708 893.909 421.62C891.441 422.532 889.349 423.739 887.632 425.241L885.056 420.976C887.203 419.152 889.778 417.757 892.783 416.791C895.787 415.771 898.953 415.262 902.279 415.262C907.752 415.262 911.964 416.63 914.914 419.366C917.919 422.049 919.421 426.153 919.421 431.68V457.916H913.949ZM899.382 458.319C896.216 458.319 893.453 457.809 891.092 456.789C888.785 455.716 887.015 454.268 885.781 452.444C884.547 450.566 883.93 448.42 883.93 446.005C883.93 443.805 884.439 441.82 885.459 440.05C886.532 438.225 888.249 436.777 890.609 435.704C893.024 434.577 896.243 434.014 900.267 434.014H914.834V438.279H900.428C896.35 438.279 893.507 439.003 891.897 440.452C890.341 441.901 889.563 443.698 889.563 445.844C889.563 448.259 890.502 450.19 892.38 451.639C894.258 453.087 896.887 453.812 900.267 453.812C903.486 453.812 906.249 453.087 908.557 451.639C910.917 450.136 912.634 447.99 913.707 445.2L914.995 449.144C913.922 451.934 912.044 454.16 909.361 455.824C906.732 457.487 903.406 458.319 899.382 458.319Z" fill="black"/>
<path d="M841.286 457.916V401.58H847.241V452.766H878.79V457.916H841.286Z" fill="black"/>
<path d="M786.713 457.916V415.664H792.186V427.173L791.623 425.161C792.803 421.942 794.788 419.5 797.578 417.837C800.368 416.12 803.829 415.262 807.96 415.262V420.815C807.746 420.815 807.531 420.815 807.316 420.815C807.102 420.761 806.887 420.734 806.672 420.734C802.219 420.734 798.732 422.103 796.21 424.839C793.688 427.522 792.427 431.358 792.427 436.348V457.916H786.713Z" fill="black"/>
<path d="M756.089 458.319C751.69 458.319 747.827 457.406 744.5 455.582C741.174 453.704 738.571 451.156 736.694 447.937C734.816 444.664 733.877 440.935 733.877 436.75C733.877 432.565 734.762 428.863 736.533 425.644C738.357 422.424 740.825 419.903 743.937 418.079C747.102 416.201 750.643 415.262 754.56 415.262C758.53 415.262 762.045 416.174 765.103 417.998C768.215 419.769 770.656 422.29 772.427 425.563C774.197 428.782 775.083 432.511 775.083 436.75C775.083 437.018 775.056 437.313 775.002 437.635C775.002 437.903 775.002 438.199 775.002 438.52H738.223V434.255H771.944L769.69 435.945C769.69 432.887 769.02 430.177 767.678 427.817C766.391 425.402 764.62 423.524 762.367 422.183C760.113 420.842 757.511 420.171 754.56 420.171C751.663 420.171 749.061 420.842 746.754 422.183C744.446 423.524 742.649 425.402 741.361 427.817C740.074 430.231 739.43 432.994 739.43 436.106V436.991C739.43 440.211 740.127 443.054 741.522 445.522C742.971 447.937 744.956 449.841 747.478 451.236C750.053 452.578 752.977 453.248 756.25 453.248C758.825 453.248 761.213 452.792 763.413 451.88C765.666 450.968 767.598 449.573 769.207 447.695L772.427 451.397C770.549 453.651 768.188 455.368 765.344 456.548C762.554 457.728 759.469 458.319 756.089 458.319Z" fill="black"/>
<path d="M700.418 458.319C696.394 458.319 692.773 457.406 689.554 455.582C686.388 453.758 683.893 451.236 682.069 448.017C680.245 444.744 679.333 440.989 679.333 436.75C679.333 432.458 680.245 428.702 682.069 425.483C683.893 422.263 686.388 419.769 689.554 417.998C692.773 416.174 696.394 415.262 700.418 415.262C704.12 415.262 707.42 416.093 710.317 417.757C713.268 419.42 715.602 421.861 717.319 425.08C719.09 428.246 719.975 432.136 719.975 436.75C719.975 441.31 719.117 445.2 717.4 448.42C715.683 451.639 713.349 454.107 710.398 455.824C707.501 457.487 704.174 458.319 700.418 458.319ZM700.821 453.248C703.825 453.248 706.508 452.578 708.869 451.236C711.283 449.841 713.161 447.91 714.502 445.442C715.897 442.92 716.595 440.023 716.595 436.75C716.595 433.423 715.897 430.526 714.502 428.058C713.161 425.59 711.283 423.685 708.869 422.344C706.508 420.949 703.825 420.251 700.821 420.251C697.87 420.251 695.214 420.949 692.853 422.344C690.492 423.685 688.615 425.59 687.22 428.058C685.825 430.526 685.127 433.423 685.127 436.75C685.127 440.023 685.825 442.92 687.22 445.442C688.615 447.91 690.492 449.841 692.853 451.236C695.214 452.578 697.87 453.248 700.821 453.248ZM716.756 457.916V445.2L717.319 436.669L716.514 428.139V398.2H722.228V457.916H716.756Z" fill="black"/>
<path d="M662.606 457.916V448.58L662.364 447.051V431.438C662.364 427.843 661.345 425.08 659.306 423.149C657.321 421.217 654.343 420.251 650.373 420.251C647.636 420.251 645.034 420.708 642.566 421.62C640.098 422.532 638.006 423.739 636.289 425.241L633.713 420.976C635.86 419.152 638.435 417.757 641.439 416.791C644.444 415.771 647.61 415.262 650.936 415.262C656.409 415.262 660.621 416.63 663.572 419.366C666.576 422.049 668.078 426.153 668.078 431.68V457.916H662.606ZM648.039 458.319C644.873 458.319 642.11 457.809 639.749 456.789C637.442 455.716 635.672 454.268 634.438 452.444C633.204 450.566 632.587 448.42 632.587 446.005C632.587 443.805 633.096 441.82 634.116 440.05C635.189 438.225 636.906 436.777 639.267 435.704C641.681 434.577 644.9 434.014 648.924 434.014H663.491V438.279H649.085C645.007 438.279 642.164 439.003 640.554 440.452C638.998 441.901 638.22 443.698 638.22 445.844C638.22 448.259 639.159 450.19 641.037 451.639C642.915 453.087 645.544 453.812 648.924 453.812C652.143 453.812 654.906 453.087 657.214 451.639C659.574 450.136 661.291 447.99 662.364 445.2L663.652 449.144C662.579 451.934 660.701 454.16 658.018 455.824C655.389 457.487 652.063 458.319 648.039 458.319Z" fill="black"/>
<path d="M606.682 458.319C602.283 458.319 598.42 457.406 595.093 455.582C591.767 453.704 589.165 451.156 587.287 447.937C585.409 444.664 584.47 440.935 584.47 436.75C584.47 432.565 585.355 428.863 587.126 425.644C588.95 422.424 591.418 419.903 594.53 418.079C597.696 416.201 601.237 415.262 605.153 415.262C609.124 415.262 612.638 416.174 615.696 417.998C618.808 419.769 621.249 422.29 623.02 425.563C624.79 428.782 625.676 432.511 625.676 436.75C625.676 437.018 625.649 437.313 625.595 437.635C625.595 437.903 625.595 438.199 625.595 438.52H588.816V434.255H622.537L620.284 435.945C620.284 432.887 619.613 430.177 618.272 427.817C616.984 425.402 615.213 423.524 612.96 422.183C610.706 420.842 608.104 420.171 605.153 420.171C602.256 420.171 599.654 420.842 597.347 422.183C595.04 423.524 593.242 425.402 591.955 427.817C590.667 430.231 590.023 432.994 590.023 436.106V436.991C590.023 440.211 590.721 443.054 592.116 445.522C593.564 447.937 595.549 449.841 598.071 451.236C600.646 452.578 603.571 453.248 606.843 453.248C609.419 453.248 611.806 452.792 614.006 451.88C616.26 450.968 618.191 449.573 619.801 447.695L623.02 451.397C621.142 453.651 618.781 455.368 615.938 456.548C613.148 457.728 610.063 458.319 606.682 458.319Z" fill="black"/>
<path d="M543.179 457.916V401.58H549.135V452.766H580.683V457.916H543.179Z" fill="black"/>
<path d="M486.849 457.916V406.731H467.05V401.58H512.602V406.731H492.804V457.916H486.849Z" fill="black"/>
<path d="M451.618 457.916V401.58H457.573V457.916H451.618Z" fill="black"/>
<path d="M360.634 457.916L386.387 401.58H392.262L418.016 457.916H411.739L388.077 405.041H390.492L366.831 457.916H360.634ZM370.774 442.866L372.545 438.038H405.3L407.071 442.866H370.774Z" fill="black"/>
<path d="M303.943 457.916V401.58H326.88C332.889 401.58 338.147 402.787 342.654 405.202C347.214 407.563 350.755 410.862 353.277 415.101C355.799 419.339 357.06 424.222 357.06 429.748C357.06 435.275 355.799 440.157 353.277 444.396C350.755 448.634 347.214 451.961 342.654 454.375C338.147 456.736 332.889 457.916 326.88 457.916H303.943ZM309.898 452.766H326.558C331.548 452.766 335.867 451.8 339.515 449.868C343.217 447.883 346.088 445.174 348.126 441.74C350.165 438.252 351.185 434.255 351.185 429.748C351.185 425.188 350.165 421.191 348.126 417.757C346.088 414.323 343.217 411.64 339.515 409.709C335.867 407.724 331.548 406.731 326.558 406.731H309.898V452.766Z" fill="black"/>
<path d="M255.418 426.77H285.195V431.841H255.418V426.77ZM256.062 452.766H289.944V457.916H250.106V401.58H288.737V406.731H256.062V452.766Z" fill="black"/>
<path d="M216.125 458.399C211.94 458.399 207.916 457.728 204.053 456.387C200.243 454.992 197.292 453.222 195.2 451.075L197.534 446.488C199.519 448.42 202.175 450.056 205.501 451.397C208.882 452.685 212.423 453.329 216.125 453.329C219.666 453.329 222.536 452.9 224.736 452.041C226.99 451.129 228.626 449.922 229.645 448.42C230.719 446.917 231.255 445.254 231.255 443.43C231.255 441.23 230.611 439.459 229.324 438.118C228.089 436.777 226.453 435.731 224.414 434.979C222.375 434.175 220.122 433.477 217.654 432.887C215.186 432.297 212.718 431.68 210.25 431.036C207.782 430.338 205.501 429.426 203.409 428.3C201.37 427.173 199.707 425.697 198.419 423.873C197.185 421.995 196.568 419.554 196.568 416.549C196.568 413.759 197.292 411.211 198.741 408.904C200.243 406.543 202.524 404.665 205.582 403.27C208.64 401.822 212.557 401.097 217.332 401.097C220.498 401.097 223.636 401.553 226.748 402.465C229.86 403.324 232.543 404.531 234.796 406.087L232.784 410.835C230.37 409.226 227.794 408.045 225.058 407.294C222.375 406.543 219.773 406.168 217.252 406.168C213.871 406.168 211.081 406.624 208.882 407.536C206.682 408.448 205.045 409.682 203.972 411.238C202.953 412.74 202.443 414.457 202.443 416.389C202.443 418.588 203.06 420.359 204.294 421.7C205.582 423.042 207.245 424.088 209.284 424.839C211.376 425.59 213.657 426.261 216.125 426.851C218.593 427.441 221.034 428.085 223.448 428.782C225.917 429.48 228.17 430.392 230.209 431.519C232.301 432.592 233.965 434.04 235.199 435.865C236.486 437.689 237.13 440.076 237.13 443.027C237.13 445.764 236.379 448.312 234.877 450.673C233.374 452.98 231.067 454.858 227.955 456.307C224.897 457.702 220.954 458.399 216.125 458.399Z" fill="black"/>
<path d="M133.891 457.916L159.644 401.58H165.519L191.273 457.916H184.995L161.334 405.041H163.749L140.087 457.916H133.891ZM144.031 442.866L145.802 438.038H178.557L180.328 442.866H144.031Z" fill="black"/>
<path d="M69.1686 457.916L50.1753 401.58H56.2918L74.0779 454.617H71.0196L89.3691 401.58H94.8417L112.95 454.617H110.052L128 401.58H133.714L114.72 457.916H108.443L91.1397 407.616H92.7493L75.3656 457.916H69.1686Z" fill="black"/>
</svg>
