<svg width="761" height="50" viewBox="0 0 761 50" fill="none" xmlns="http://www.w3.org/2000/svg">
<path d="M743.464 49.302C740.428 49.302 737.7 48.62 735.28 47.256C732.86 45.848 730.946 43.824 729.538 41.184C728.13 38.544 727.426 35.354 727.426 31.614C727.426 27.83 728.13 24.64 729.538 22.044C730.99 19.404 732.926 17.402 735.346 16.038C737.766 14.674 740.472 13.992 743.464 13.992C746.764 13.992 749.712 14.74 752.308 16.236C754.948 17.688 757.016 19.734 758.512 22.374C760.008 25.014 760.756 28.094 760.756 31.614C760.756 35.09 760.008 38.17 758.512 40.854C757.016 43.494 754.948 45.562 752.308 47.058C749.712 48.554 746.764 49.302 743.464 49.302ZM725.578 48.972V0H730.264V24.552L729.604 31.548L730.066 38.544V48.972H725.578ZM743.134 45.144C745.598 45.144 747.798 44.594 749.734 43.494C751.67 42.35 753.21 40.766 754.354 38.742C755.498 36.674 756.07 34.298 756.07 31.614C756.07 28.886 755.498 26.51 754.354 24.486C753.21 22.462 751.67 20.9 749.734 19.8C747.798 18.656 745.598 18.084 743.134 18.084C740.67 18.084 738.448 18.656 736.468 19.8C734.532 20.9 732.992 22.462 731.848 24.486C730.748 26.51 730.198 28.886 730.198 31.614C730.198 34.298 730.748 36.674 731.848 38.742C732.992 40.766 734.532 42.35 736.468 43.494C738.448 44.594 740.67 45.144 743.134 45.144Z" fill="black"/>
<path d="M708.362 48.9721V41.3161L708.164 40.0621V27.2581C708.164 24.3101 707.328 22.0441 705.656 20.4601C704.028 18.8761 701.586 18.0841 698.33 18.0841C696.086 18.0841 693.952 18.4581 691.928 19.2061C689.904 19.9541 688.188 20.9441 686.78 22.1761L684.668 18.6781C686.428 17.1821 688.54 16.0381 691.004 15.2461C693.468 14.4101 696.064 13.9921 698.792 13.9921C703.28 13.9921 706.734 15.1141 709.154 17.3581C711.618 19.5581 712.85 22.9241 712.85 27.4561V48.9721H708.362ZM696.416 49.3021C693.82 49.3021 691.554 48.8841 689.618 48.0481C687.726 47.1681 686.274 45.9801 685.262 44.4841C684.25 42.9441 683.744 41.1841 683.744 39.2041C683.744 37.4001 684.162 35.7721 684.998 34.3201C685.878 32.8241 687.286 31.6361 689.222 30.7561C691.202 29.8321 693.842 29.3701 697.142 29.3701H709.088V32.8681H697.274C693.93 32.8681 691.598 33.4621 690.278 34.6501C689.002 35.8381 688.364 37.3121 688.364 39.0721C688.364 41.0521 689.134 42.6361 690.674 43.8241C692.214 45.0121 694.37 45.6061 697.142 45.6061C699.782 45.6061 702.048 45.0121 703.94 43.8241C705.876 42.5921 707.284 40.8321 708.164 38.5441L709.22 41.7781C708.34 44.0661 706.8 45.8921 704.6 47.2561C702.444 48.6201 699.716 49.3021 696.416 49.3021Z" fill="black"/>
<path d="M648.773 48.9721V2.77209H653.657V44.7481H679.529V48.9721H648.773Z" fill="black"/>
<path d="M604.019 48.9721V14.3221H608.507V23.7601L608.045 22.1101C609.013 19.4701 610.641 17.4681 612.929 16.1041C615.217 14.6961 618.055 13.9921 621.443 13.9921V18.5461C621.267 18.5461 621.091 18.5461 620.915 18.5461C620.739 18.5021 620.563 18.4801 620.387 18.4801C616.735 18.4801 613.875 19.6021 611.807 21.8461C609.739 24.0461 608.705 27.1921 608.705 31.2841V48.9721H604.019Z" fill="black"/>
<path d="M578.905 49.3021C575.297 49.3021 572.129 48.5541 569.401 47.0581C566.673 45.5181 564.539 43.4281 562.999 40.7881C561.459 38.1041 560.689 35.0461 560.689 31.6141C560.689 28.1821 561.415 25.1461 562.867 22.5061C564.363 19.8661 566.387 17.7981 568.939 16.3021C571.535 14.7621 574.439 13.9921 577.651 13.9921C580.907 13.9921 583.789 14.7401 586.297 16.2361C588.849 17.6881 590.851 19.7561 592.303 22.4401C593.755 25.0801 594.481 28.1381 594.481 31.6141C594.481 31.8341 594.459 32.0761 594.415 32.3401C594.415 32.5601 594.415 32.8021 594.415 33.0661H564.253V29.5681H591.907L590.059 30.9541C590.059 28.4461 589.509 26.2241 588.409 24.2881C587.353 22.3081 585.901 20.7681 584.053 19.6681C582.205 18.5681 580.071 18.0181 577.651 18.0181C575.275 18.0181 573.141 18.5681 571.249 19.6681C569.357 20.7681 567.883 22.3081 566.827 24.2881C565.771 26.2681 565.243 28.5341 565.243 31.0861V31.8121C565.243 34.4521 565.815 36.7841 566.959 38.8081C568.147 40.7881 569.775 42.3501 571.843 43.4941C573.955 44.5941 576.353 45.1441 579.037 45.1441C581.149 45.1441 583.107 44.7701 584.911 44.0221C586.759 43.2741 588.343 42.1301 589.663 40.5901L592.303 43.6261C590.763 45.4741 588.827 46.8821 586.495 47.8501C584.207 48.8181 581.677 49.3021 578.905 49.3021Z" fill="black"/>
<path d="M533.25 49.302C529.95 49.302 526.981 48.554 524.341 47.058C521.745 45.562 519.699 43.494 518.203 40.854C516.707 38.17 515.958 35.09 515.958 31.614C515.958 28.094 516.707 25.014 518.203 22.374C519.699 19.734 521.745 17.688 524.341 16.236C526.981 14.74 529.95 13.992 533.25 13.992C536.286 13.992 538.992 14.674 541.368 16.038C543.788 17.402 545.702 19.404 547.11 22.044C548.562 24.64 549.289 27.83 549.289 31.614C549.289 35.354 548.585 38.544 547.177 41.184C545.769 43.824 543.855 45.848 541.435 47.256C539.059 48.62 536.33 49.302 533.25 49.302ZM533.581 45.144C536.045 45.144 538.244 44.594 540.18 43.494C542.16 42.35 543.7 40.766 544.8 38.742C545.944 36.674 546.516 34.298 546.516 31.614C546.516 28.886 545.944 26.51 544.8 24.486C543.7 22.462 542.16 20.9 540.18 19.8C538.244 18.656 536.045 18.084 533.581 18.084C531.161 18.084 528.983 18.656 527.047 19.8C525.111 20.9 523.571 22.462 522.427 24.486C521.283 26.51 520.711 28.886 520.711 31.614C520.711 34.298 521.283 36.674 522.427 38.742C523.571 40.766 525.111 42.35 527.047 43.494C528.983 44.594 531.161 45.144 533.581 45.144ZM546.648 48.972V38.544L547.11 31.548L546.451 24.552V0H551.136V48.972H546.648Z" fill="black"/>
<path d="M502.241 48.9721V41.3161L502.043 40.0621V27.2581C502.043 24.3101 501.207 22.0441 499.535 20.4601C497.907 18.8761 495.465 18.0841 492.209 18.0841C489.965 18.0841 487.831 18.4581 485.807 19.2061C483.783 19.9541 482.067 20.9441 480.659 22.1761L478.547 18.6781C480.307 17.1821 482.419 16.0381 484.883 15.2461C487.347 14.4101 489.943 13.9921 492.671 13.9921C497.159 13.9921 500.613 15.1141 503.033 17.3581C505.497 19.5581 506.729 22.9241 506.729 27.4561V48.9721H502.241ZM490.295 49.3021C487.699 49.3021 485.433 48.8841 483.497 48.0481C481.605 47.1681 480.153 45.9801 479.141 44.4841C478.129 42.9441 477.623 41.1841 477.623 39.2041C477.623 37.4001 478.041 35.7721 478.877 34.3201C479.757 32.8241 481.165 31.6361 483.101 30.7561C485.081 29.8321 487.721 29.3701 491.021 29.3701H502.967V32.8681H491.153C487.809 32.8681 485.477 33.4621 484.157 34.6501C482.881 35.8381 482.243 37.3121 482.243 39.0721C482.243 41.0521 483.013 42.6361 484.553 43.8241C486.093 45.0121 488.249 45.6061 491.021 45.6061C493.661 45.6061 495.927 45.0121 497.819 43.8241C499.755 42.5921 501.163 40.8321 502.043 38.5441L503.099 41.7781C502.219 44.0661 500.679 45.8921 498.479 47.2561C496.323 48.6201 493.595 49.3021 490.295 49.3021Z" fill="black"/>
<path d="M456.38 49.3021C452.772 49.3021 449.604 48.5541 446.876 47.0581C444.148 45.5181 442.014 43.4281 440.474 40.7881C438.934 38.1041 438.164 35.0461 438.164 31.6141C438.164 28.1821 438.89 25.1461 440.342 22.5061C441.838 19.8661 443.862 17.7981 446.414 16.3021C449.01 14.7621 451.914 13.9921 455.126 13.9921C458.382 13.9921 461.264 14.7401 463.772 16.2361C466.324 17.6881 468.326 19.7561 469.778 22.4401C471.23 25.0801 471.956 28.1381 471.956 31.6141C471.956 31.8341 471.934 32.0761 471.89 32.3401C471.89 32.5601 471.89 32.8021 471.89 33.0661H441.728V29.5681H469.382L467.534 30.9541C467.534 28.4461 466.984 26.2241 465.884 24.2881C464.828 22.3081 463.376 20.7681 461.528 19.6681C459.68 18.5681 457.546 18.0181 455.126 18.0181C452.75 18.0181 450.616 18.5681 448.724 19.6681C446.832 20.7681 445.358 22.3081 444.302 24.2881C443.246 26.2681 442.718 28.5341 442.718 31.0861V31.8121C442.718 34.4521 443.29 36.7841 444.434 38.8081C445.622 40.7881 447.25 42.3501 449.318 43.4941C451.43 44.5941 453.828 45.1441 456.512 45.1441C458.624 45.1441 460.582 44.7701 462.386 44.0221C464.234 43.2741 465.818 42.1301 467.138 40.5901L469.778 43.6261C468.238 45.4741 466.302 46.8821 463.97 47.8501C461.682 48.8181 459.152 49.3021 456.38 49.3021Z" fill="black"/>
<path d="M404.302 48.9721V2.77209H409.186V44.7481H435.058V48.9721H404.302Z" fill="black"/>
<path d="M358.106 48.9721V6.9961H341.87V2.77209H379.226V6.9961H362.99V48.9721H358.106Z" fill="black"/>
<path d="M329.214 48.9721V2.77209H334.098V48.9721H329.214Z" fill="black"/>
<path d="M254.6 48.9721L275.72 2.77209H280.538L301.658 48.9721H296.51L277.106 5.6101H279.086L259.682 48.9721H254.6ZM262.916 36.6301L264.368 32.6701H291.23L292.682 36.6301H262.916Z" fill="black"/>
<path d="M208.109 48.9721V2.77209H226.919C231.847 2.77209 236.159 3.7621 239.855 5.7421C243.595 7.6781 246.499 10.3841 248.567 13.8601C250.635 17.3361 251.669 21.3401 251.669 25.8721C251.669 30.4041 250.635 34.4081 248.567 37.8841C246.499 41.3601 243.595 44.0881 239.855 46.0681C236.159 48.0041 231.847 48.9721 226.919 48.9721H208.109ZM212.993 44.7481H226.655C230.747 44.7481 234.289 43.9561 237.281 42.3721C240.317 40.7441 242.671 38.5221 244.343 35.7061C246.015 32.8461 246.851 29.5681 246.851 25.8721C246.851 22.1321 246.015 18.8541 244.343 16.0381C242.671 13.2221 240.317 11.0221 237.281 9.4381C234.289 7.8101 230.747 6.9961 226.655 6.9961H212.993V44.7481Z" fill="black"/>
<path d="M168.315 23.4301H192.735V27.5881H168.315V23.4301ZM168.843 44.7481H196.629V48.9721H163.959V2.77209H195.639V6.9961H168.843V44.7481Z" fill="black"/>
<path d="M136.092 49.3681C132.66 49.3681 129.36 48.8181 126.192 47.7181C123.068 46.5741 120.648 45.1221 118.932 43.3621L120.846 39.6001C122.474 41.1841 124.652 42.5261 127.38 43.6261C130.152 44.6821 133.056 45.2101 136.092 45.2101C138.996 45.2101 141.35 44.8581 143.154 44.1541C145.002 43.4061 146.344 42.4161 147.18 41.1841C148.06 39.9521 148.5 38.5881 148.5 37.0921C148.5 35.2881 147.972 33.8361 146.916 32.7361C145.904 31.6361 144.562 30.7781 142.89 30.1621C141.218 29.5021 139.37 28.9301 137.346 28.4461C135.322 27.9621 133.298 27.4561 131.274 26.9281C129.25 26.3561 127.38 25.6081 125.664 24.6841C123.992 23.7601 122.628 22.5501 121.572 21.0541C120.56 19.5141 120.054 17.5121 120.054 15.0481C120.054 12.7601 120.648 10.6701 121.836 8.7781C123.068 6.8421 124.938 5.3021 127.446 4.1581C129.954 2.9701 133.166 2.3761 137.082 2.3761C139.678 2.3761 142.252 2.7501 144.804 3.4981C147.356 4.2021 149.556 5.1921 151.404 6.4681L149.754 10.3621C147.774 9.0421 145.662 8.0741 143.418 7.4581C141.218 6.8421 139.084 6.5341 137.016 6.5341C134.244 6.5341 131.956 6.9081 130.152 7.6561C128.348 8.4041 127.006 9.4161 126.126 10.6921C125.29 11.9241 124.872 13.3321 124.872 14.9161C124.872 16.7201 125.378 18.1721 126.39 19.2721C127.446 20.3721 128.81 21.2301 130.482 21.8461C132.198 22.4621 134.068 23.0121 136.092 23.4961C138.116 23.9801 140.118 24.5081 142.098 25.0801C144.122 25.6521 145.97 26.4001 147.642 27.3241C149.358 28.2041 150.722 29.3921 151.734 30.8881C152.79 32.3841 153.318 34.3421 153.318 36.7621C153.318 39.0061 152.702 41.0961 151.47 43.0321C150.238 44.9241 148.346 46.4641 145.794 47.6521C143.286 48.7961 140.052 49.3681 136.092 49.3681Z" fill="black"/>
<path d="M68.6531 48.9721L89.7731 2.77209H94.5911L115.711 48.9721H110.563L91.1591 5.6101H93.1391L73.7351 48.9721H68.6531ZM76.9691 36.6301L78.4211 32.6701H105.283L106.735 36.6301H76.9691Z" fill="black"/>
<path d="M15.576 48.9721L0 2.77209H5.016L19.602 46.2661H17.094L32.142 2.77209H36.63L51.48 46.2661H49.104L63.822 2.77209H68.508L52.932 48.9721H47.784L33.594 7.7221H34.914L20.658 48.9721H15.576Z" fill="black"/>
</svg>
