<svg width="1029" height="286" viewBox="0 0 1029 286" fill="none" xmlns="http://www.w3.org/2000/svg">
<path d="M922.412 0V7.99998C913.346 8.26665 906.412 9.33332 901.612 11.2C897.079 12.8 894.012 16 892.412 20.8C890.812 25.3333 890.012 32.5333 890.012 42.4V240.8C890.012 250.4 890.812 257.6 892.412 262.4C894.012 267.2 897.079 270.4 901.612 272C906.412 273.333 913.346 274 922.412 274H951.612C964.146 274 974.279 272.667 982.012 270C990.012 267.333 996.279 263.2 1000.81 257.6C1005.61 251.733 1009.21 244 1011.61 234.4C1014.01 224.8 1015.88 213.067 1017.21 199.2H1026.41C1025.61 207.467 1025.21 218.4 1025.21 232C1025.21 237.067 1025.35 244.4 1025.61 254C1026.15 263.333 1026.95 273.067 1028.01 283.2C1014.41 282.667 999.079 282.4 982.012 282.4C964.946 282.133 949.746 282 936.412 282C930.546 282 922.946 282 913.612 282C904.546 282 894.679 282.133 884.012 282.4C873.346 282.4 862.546 282.533 851.612 282.8C840.679 282.8 830.279 282.933 820.412 283.2V275.2C829.479 274.667 836.279 273.6 840.812 272C845.612 270.4 848.812 267.2 850.412 262.4C852.012 257.6 852.812 250.4 852.812 240.8V42.4C852.812 32.5333 852.012 25.3333 850.412 20.8C848.812 16 845.612 12.8 840.812 11.2C836.279 9.33332 829.479 8.26665 820.412 7.99998V0C826.012 0.266663 833.346 0.533325 842.412 0.799988C851.479 1.06665 861.212 1.19998 871.612 1.19998C880.946 1.19998 890.146 1.06665 899.212 0.799988C908.546 0.533325 916.279 0.266663 922.412 0Z" fill="#232323"/>
<path d="M675.256 0V7.99998C666.189 8.26665 659.256 9.33332 654.456 11.2C649.923 12.8 646.856 16 645.256 20.8C643.656 25.3333 642.856 32.5333 642.856 42.4V240.8C642.856 250.4 643.656 257.6 645.256 262.4C646.856 267.2 649.923 270.4 654.456 272C659.256 273.333 666.189 274 675.256 274H704.456C716.989 274 727.123 272.667 734.856 270C742.856 267.333 749.123 263.2 753.656 257.6C758.456 251.733 762.056 244 764.456 234.4C766.856 224.8 768.723 213.067 770.056 199.2H779.256C778.456 207.467 778.056 218.4 778.056 232C778.056 237.067 778.189 244.4 778.456 254C778.989 263.333 779.789 273.067 780.856 283.2C767.256 282.667 751.923 282.4 734.856 282.4C717.789 282.133 702.589 282 689.256 282C683.389 282 675.789 282 666.456 282C657.389 282 647.523 282.133 636.856 282.4C626.189 282.4 615.389 282.533 604.456 282.8C593.523 282.8 583.123 282.933 573.256 283.2V275.2C582.323 274.667 589.123 273.6 593.656 272C598.456 270.4 601.656 267.2 603.256 262.4C604.856 257.6 605.656 250.4 605.656 240.8V42.4C605.656 32.5333 604.856 25.3333 603.256 20.8C601.656 16 598.456 12.8 593.656 11.2C589.123 9.33332 582.323 8.26665 573.256 7.99998V0C578.856 0.266663 586.189 0.533325 595.256 0.799988C604.323 1.06665 614.056 1.19998 624.456 1.19998C633.789 1.19998 642.989 1.06665 652.056 0.799988C661.389 0.533325 669.123 0.266663 675.256 0Z" fill="#232323"/>
<path d="M511.71 0V7.99998C502.643 8.26665 495.709 9.33332 490.909 11.2C486.376 12.8 483.31 16 481.71 20.8C480.109 25.3333 479.309 32.5333 479.309 42.4V240.8C479.309 250.4 480.109 257.6 481.71 262.4C483.31 267.2 486.376 270.4 490.909 272C495.709 273.6 502.643 274.667 511.71 275.2V283.2C505.576 282.667 497.843 282.4 488.509 282.4C479.443 282.133 470.243 282 460.909 282C450.509 282 440.776 282.133 431.709 282.4C422.643 282.4 415.309 282.667 409.709 283.2V275.2C418.776 274.667 425.576 273.6 430.109 272C434.909 270.4 438.109 267.2 439.709 262.4C441.309 257.6 442.109 250.4 442.109 240.8V42.4C442.109 32.5333 441.309 25.3333 439.709 20.8C438.109 16 434.909 12.8 430.109 11.2C425.576 9.33332 418.776 8.26665 409.709 7.99998V0C415.309 0.266663 422.643 0.533325 431.709 0.799988C440.776 1.06665 450.509 1.19998 460.909 1.19998C470.243 1.19998 479.443 1.06665 488.509 0.799988C497.843 0.533325 505.576 0.266663 511.71 0Z" fill="#232323"/>
<path d="M365.6 0V7.99998C360.533 9.06665 354.933 12.1333 348.8 17.2C342.667 22 337.733 30.5333 334 42.8L258.4 285.2C257.867 285.2 257.333 285.2 256.8 285.2C256.267 285.2 255.733 285.2 255.2 285.2C254.667 285.2 254.133 285.2 253.6 285.2C253.067 285.2 252.533 285.2 252 285.2L167.2 33.6C163.733 23.2 159.867 16.4 155.6 13.2C151.333 9.99999 147.333 8.26665 143.6 7.99998V0C148.4 0.266663 154.4 0.533325 161.6 0.799988C168.8 1.06665 175.733 1.19998 182.4 1.19998C192.8 1.19998 202.533 1.06665 211.6 0.799988C220.667 0.533325 228 0.266663 233.6 0V7.99998C225.6 8.26665 219.2 9.06665 214.4 10.4C209.867 11.7333 207.2 14.6666 206.4 19.2C205.867 23.7333 207.2 31.2 210.4 41.6L270 226L264.4 230.8L317.2 64.8C322 50.1333 324.133 38.8 323.6 30.8C323.333 22.5333 320.4 16.8 314.8 13.6C309.2 10.1333 300.8 8.26665 289.6 7.99998V0C297.333 0.266663 305.2 0.533325 313.2 0.799988C321.2 1.06665 328.667 1.19998 335.6 1.19998C342.533 1.19998 348.267 1.06665 352.8 0.799988C357.333 0.533325 361.6 0.266663 365.6 0ZM86 0V7.99998C79.0667 8.53331 74 9.86665 70.8 12C67.8667 14.1333 66.4 17.6 66.4 22.4C66.6667 26.9333 68.1333 33.3333 70.8 41.6L132.8 230.8L122.8 240.8L178.8 62L184.8 71.6L118.8 285.2C118.267 285.2 117.733 285.2 117.2 285.2C116.667 285.2 116.133 285.2 115.6 285.2C115.067 285.2 114.533 285.2 114 285.2C113.467 285.2 112.933 285.2 112.4 285.2L27.6 33.6C24.1333 23.2 19.7333 16.4 14.4 13.2C9.06667 9.99999 4.26667 8.26665 0 7.99998V0C5.33333 0.266663 11.8667 0.533325 19.6 0.799988C27.6 1.06665 35.3333 1.19998 42.8 1.19998C51.6 1.19998 59.7333 1.06665 67.2 0.799988C74.9333 0.533325 81.2 0.266663 86 0Z" fill="#232323"/>
</svg>
