<svg width="108" height="48" viewBox="0 0 108 48" fill="none" xmlns="http://www.w3.org/2000/svg">
<g id="Group 17">
<g id="WILL">
<path d="M39.0848 0V0.861143C38.5432 0.975963 37.9445 1.30607 37.2888 1.85146C36.6331 2.36815 36.1057 3.2867 35.7066 4.60712L27.6245 30.6998C27.5675 30.6998 27.5105 30.6998 27.4535 30.6998C27.3965 30.6998 27.3394 30.6998 27.2824 30.6998C27.2254 30.6998 27.1684 30.6998 27.1114 30.6998C27.0544 30.6998 26.9973 30.6998 26.9403 30.6998L17.8747 3.61681C17.5041 2.49732 17.0907 1.76535 16.6346 1.42089C16.1784 1.07643 15.7508 0.889848 15.3517 0.861143V0C15.8649 0.0287045 16.5063 0.0574087 17.276 0.0861132C18.0457 0.114818 18.787 0.12917 19.4997 0.12917C20.6115 0.12917 21.652 0.114818 22.6213 0.0861132C23.5906 0.0574087 24.3746 0.0287045 24.9732 0V0.861143C24.118 0.889848 23.4338 0.975962 22.9207 1.11949C22.436 1.26301 22.1509 1.57876 22.0654 2.06675C22.0084 2.55473 22.1509 3.35846 22.493 4.47795L28.8646 24.3273L28.266 24.844L33.9106 6.97527C34.4237 5.39651 34.6518 4.17655 34.5948 3.3154C34.5663 2.42555 34.2527 1.8084 33.654 1.46395C33.0553 1.09078 32.1573 0.889848 30.96 0.861143V0C31.7867 0.0287045 32.6277 0.0574087 33.483 0.0861132C34.3382 0.114818 35.1365 0.12917 35.8777 0.12917C36.6189 0.12917 37.2318 0.114818 37.7164 0.0861132C38.2011 0.0574087 38.6572 0.0287045 39.0848 0ZM9.19392 0V0.861143C8.4527 0.918552 7.91105 1.06208 7.56895 1.29172C7.25536 1.52135 7.09856 1.89452 7.09856 2.4112C7.12707 2.89919 7.28386 3.5881 7.56895 4.47795L14.1971 24.844L13.1281 25.9205L19.1148 6.67387L19.7562 7.70724L12.7004 30.6998C12.6434 30.6998 12.5864 30.6998 12.5294 30.6998C12.4724 30.6998 12.4154 30.6998 12.3583 30.6998C12.3013 30.6998 12.2443 30.6998 12.1873 30.6998C12.1303 30.6998 12.0733 30.6998 12.0162 30.6998L2.95061 3.61681C2.58 2.49732 2.10961 1.76535 1.53945 1.42089C0.969281 1.07643 0.456132 0.889848 0 0.861143V0C0.570166 0.0287045 1.26862 0.0574087 2.09536 0.0861132C2.95061 0.114818 3.77735 0.12917 4.57558 0.12917C5.51635 0.12917 6.38585 0.114818 7.18409 0.0861132C8.01083 0.0574087 8.68077 0.0287045 9.19392 0Z" fill="#232323"/>
<path d="M53.8496 0V0.861143C52.8803 0.889848 52.1391 1.00467 51.6259 1.2056C51.1413 1.37783 50.8134 1.72229 50.6424 2.23898C50.4713 2.72696 50.3858 3.50199 50.3858 4.56407V25.9205C50.3858 26.9538 50.4713 27.7289 50.6424 28.2456C50.8134 28.7622 51.1413 29.1067 51.6259 29.2789C52.1391 29.4512 52.8803 29.566 53.8496 29.6234V30.4845C53.1939 30.4271 52.3671 30.3984 51.3694 30.3984C50.4001 30.3697 49.4165 30.3554 48.4187 30.3554C47.3069 30.3554 46.2664 30.3697 45.2971 30.3984C44.3278 30.3984 43.5438 30.4271 42.9452 30.4845V29.6234C43.9144 29.566 44.6414 29.4512 45.126 29.2789C45.6392 29.1067 45.9813 28.7622 46.1523 28.2456C46.3234 27.7289 46.4089 26.9538 46.4089 25.9205V4.56407C46.4089 3.50199 46.3234 2.72696 46.1523 2.23898C45.9813 1.72229 45.6392 1.37783 45.126 1.2056C44.6414 1.00467 43.9144 0.889848 42.9452 0.861143V0C43.5438 0.0287045 44.3278 0.0574087 45.2971 0.0861132C46.2664 0.114818 47.3069 0.12917 48.4187 0.12917C49.4165 0.12917 50.4001 0.114818 51.3694 0.0861132C52.3671 0.0574087 53.1939 0.0287045 53.8496 0Z" fill="#232323"/>
<path d="M70.9061 0V0.861143C69.9368 0.889848 69.1956 1.00467 68.6824 1.2056C68.1978 1.37783 67.87 1.72229 67.6989 2.23898C67.5279 2.72696 67.4423 3.50199 67.4423 4.56407V25.9205C67.4423 26.9538 67.5279 27.7289 67.6989 28.2456C67.87 28.7622 68.1978 29.1067 68.6824 29.2789C69.1956 29.4224 69.9368 29.4942 70.9061 29.4942H74.0277C75.3676 29.4942 76.451 29.3507 77.2777 29.0636C78.1329 28.7766 78.8029 28.3317 79.2875 27.7289C79.8007 27.0974 80.1855 26.2649 80.4421 25.2315C80.6987 24.1982 80.8982 22.9352 81.0408 21.4425H82.0243C81.9388 22.3324 81.896 23.5093 81.896 24.9732C81.896 25.5186 81.9103 26.308 81.9388 27.3413C81.9958 28.346 82.0813 29.3937 82.1954 30.4845C80.7415 30.4271 79.1022 30.3984 77.2777 30.3984C75.4532 30.3697 73.8282 30.3554 72.4028 30.3554C71.7756 30.3554 70.9631 30.3554 69.9653 30.3554C68.996 30.3554 67.9412 30.3697 66.8009 30.3984C65.6606 30.3984 64.506 30.4128 63.3371 30.4415C62.1683 30.4415 61.0565 30.4558 60.0017 30.4845V29.6234C60.971 29.566 61.6979 29.4512 62.1826 29.2789C62.6957 29.1067 63.0378 28.7622 63.2089 28.2456C63.3799 27.7289 63.4654 26.9538 63.4654 25.9205V4.56407C63.4654 3.50199 63.3799 2.72696 63.2089 2.23898C63.0378 1.72229 62.6957 1.37783 62.1826 1.2056C61.6979 1.00467 60.971 0.889848 60.0017 0.861143V0C60.6003 0.0287045 61.3843 0.0574087 62.3536 0.0861132C63.3229 0.114818 64.3634 0.12917 65.4753 0.12917C66.4731 0.12917 67.4566 0.114818 68.4259 0.0861132C69.4237 0.0574087 70.2504 0.0287045 70.9061 0Z" fill="#232323"/>
<path d="M96.4733 0V0.861143C95.5041 0.889848 94.7628 1.00467 94.2497 1.2056C93.7651 1.37783 93.4372 1.72229 93.2662 2.23898C93.0951 2.72696 93.0096 3.50199 93.0096 4.56407V25.9205C93.0096 26.9538 93.0951 27.7289 93.2662 28.2456C93.4372 28.7622 93.7651 29.1067 94.2497 29.2789C94.7628 29.4224 95.5041 29.4942 96.4733 29.4942H99.595C100.935 29.4942 102.018 29.3507 102.845 29.0636C103.7 28.7766 104.37 28.3317 104.855 27.7289C105.368 27.0974 105.753 26.2649 106.009 25.2315C106.266 24.1982 106.465 22.9352 106.608 21.4425H107.592C107.506 22.3324 107.463 23.5093 107.463 24.9732C107.463 25.5186 107.478 26.308 107.506 27.3413C107.563 28.346 107.649 29.3937 107.763 30.4845C106.309 30.4271 104.669 30.3984 102.845 30.3984C101.02 30.3697 99.3954 30.3554 97.97 30.3554C97.3428 30.3554 96.5304 30.3554 95.5326 30.3554C94.5633 30.3554 93.5085 30.3697 92.3681 30.3984C91.2278 30.3984 90.0732 30.4128 88.9044 30.4415C87.7355 30.4415 86.6237 30.4558 85.5689 30.4845V29.6234C86.5382 29.566 87.2652 29.4512 87.7498 29.2789C88.263 29.1067 88.6051 28.7622 88.7761 28.2456C88.9472 27.7289 89.0327 26.9538 89.0327 25.9205V4.56407C89.0327 3.50199 88.9472 2.72696 88.7761 2.23898C88.6051 1.72229 88.263 1.37783 87.7498 1.2056C87.2652 1.00467 86.5382 0.889848 85.5689 0.861143V0C86.1676 0.0287045 86.9516 0.0574087 87.9209 0.0861132C88.8901 0.114818 89.9307 0.12917 91.0425 0.12917C92.0403 0.12917 93.0238 0.114818 93.9931 0.0861132C94.9909 0.0574087 95.8176 0.0287045 96.4733 0Z" fill="#232323"/>
</g>
<g id="Waseda IT Leader Lab">
<path d="M17.0146 47.9665L15.3496 43.2696H15.8858L17.445 47.6914H17.1769L18.7854 43.2696H19.2652L20.8525 47.6914H20.5986L22.1718 43.2696H22.6727L21.0078 47.9665H20.4575L18.9406 43.7728H19.0817L17.5578 47.9665H17.0146Z" fill="#232323"/>
<path d="M25.5628 47.9665V47.1881L25.5416 47.0606V45.7589C25.5416 45.4592 25.4522 45.2289 25.2735 45.0678C25.0995 44.9068 24.8385 44.8263 24.4904 44.8263C24.2505 44.8263 24.0224 44.8643 23.8061 44.9403C23.5897 45.0164 23.4063 45.117 23.2558 45.2423L23.03 44.8867C23.2181 44.7346 23.4439 44.6183 23.7073 44.5378C23.9707 44.4528 24.2482 44.4103 24.5398 44.4103C25.0195 44.4103 25.3887 44.5243 25.6474 44.7525C25.9108 44.9761 26.0425 45.3183 26.0425 45.7791V47.9665H25.5628ZM24.2858 48C24.0083 48 23.7661 47.9575 23.5591 47.8725C23.3569 47.7831 23.2017 47.6623 23.0935 47.5102C22.9853 47.3536 22.9312 47.1747 22.9312 46.9734C22.9312 46.79 22.9759 46.6245 23.0653 46.4769C23.1594 46.3248 23.3099 46.204 23.5168 46.1146C23.7285 46.0206 24.0107 45.9737 24.3634 45.9737H25.6404V46.3293H24.3775C24.0201 46.3293 23.7708 46.3897 23.6297 46.5104C23.4933 46.6312 23.4251 46.7811 23.4251 46.96C23.4251 47.1613 23.5074 47.3223 23.672 47.4431C23.8366 47.5639 24.0671 47.6243 24.3634 47.6243C24.6456 47.6243 24.8878 47.5639 25.0901 47.4431C25.297 47.3178 25.4475 47.1389 25.5416 46.9063L25.6545 47.2351C25.5604 47.4677 25.3958 47.6533 25.1606 47.792C24.9302 47.9307 24.6386 48 24.2858 48Z" fill="#232323"/>
<path d="M28.3978 48C28.0921 48 27.8028 47.9597 27.53 47.8792C27.2572 47.7942 27.0432 47.6891 26.888 47.5639L27.1138 47.1881C27.2643 47.2955 27.4571 47.3894 27.6923 47.4699C27.9275 47.546 28.1744 47.584 28.4331 47.584C28.7858 47.584 29.0398 47.5326 29.195 47.4297C29.3502 47.3223 29.4278 47.1814 29.4278 47.007C29.4278 46.8772 29.3831 46.7766 29.2938 46.705C29.2091 46.629 29.0962 46.5731 28.9551 46.5373C28.814 46.497 28.6565 46.4635 28.4825 46.4366C28.3084 46.4098 28.1344 46.3785 27.9604 46.3427C27.7911 46.3069 27.6358 46.2555 27.4947 46.1884C27.3536 46.1168 27.2384 46.0206 27.1491 45.8998C27.0644 45.7791 27.0221 45.618 27.0221 45.4167C27.0221 45.2244 27.0785 45.0522 27.1914 44.9001C27.3043 44.748 27.4689 44.6295 27.6852 44.5445C27.9063 44.455 28.1744 44.4103 28.4895 44.4103C28.7294 44.4103 28.9693 44.4416 29.2091 44.5042C29.449 44.5624 29.6465 44.6406 29.8017 44.739L29.583 45.1215C29.4184 45.0142 29.242 44.9381 29.0539 44.8934C28.8658 44.8442 28.6776 44.8196 28.4895 44.8196C28.1556 44.8196 27.9086 44.8755 27.7487 44.9873C27.5935 45.0947 27.5159 45.2333 27.5159 45.4033C27.5159 45.5375 27.5582 45.6426 27.6429 45.7187C27.7323 45.7947 27.8475 45.8551 27.9886 45.8998C28.1344 45.9401 28.292 45.9737 28.4613 46.0005C28.6353 46.0273 28.807 46.0609 28.9763 46.1011C29.1503 46.1369 29.3079 46.1884 29.449 46.2555C29.5948 46.3181 29.71 46.4098 29.7947 46.5306C29.8841 46.6469 29.9287 46.8012 29.9287 46.9935C29.9287 47.1993 29.8676 47.3782 29.7453 47.5303C29.6277 47.6779 29.4537 47.7942 29.2232 47.8792C28.9975 47.9597 28.7223 48 28.3978 48Z" fill="#232323"/>
<path d="M32.4212 48C32.0355 48 31.6968 47.924 31.4052 47.7719C31.1136 47.6153 30.8855 47.4028 30.7209 47.1344C30.5563 46.8616 30.474 46.5507 30.474 46.2018C30.474 45.8529 30.5516 45.5442 30.7068 45.2758C30.8667 45.0074 31.083 44.7972 31.3558 44.6451C31.6333 44.4885 31.9438 44.4103 32.2871 44.4103C32.6352 44.4103 32.9432 44.4863 33.2113 44.6384C33.4841 44.786 33.6981 44.9963 33.8533 45.2691C34.0085 45.5375 34.0861 45.8484 34.0861 46.2018C34.0861 46.2241 34.0838 46.2488 34.0791 46.2756C34.0791 46.298 34.0791 46.3226 34.0791 46.3494H30.8549V45.9938H33.811L33.6135 46.1347C33.6135 45.8797 33.5547 45.6538 33.4371 45.457C33.3242 45.2557 33.169 45.0991 32.9714 44.9873C32.7739 44.8755 32.5458 44.8196 32.2871 44.8196C32.0331 44.8196 31.805 44.8755 31.6028 44.9873C31.4005 45.0991 31.243 45.2557 31.1301 45.457C31.0172 45.6583 30.9608 45.8887 30.9608 46.1481V46.2219C30.9608 46.4903 31.0219 46.7274 31.1442 46.9332C31.2712 47.1344 31.4452 47.2932 31.6663 47.4095C31.892 47.5214 32.1484 47.5773 32.4353 47.5773C32.661 47.5773 32.8703 47.5393 33.0632 47.4632C33.2607 47.3872 33.43 47.2709 33.5711 47.1143L33.8533 47.423C33.6887 47.6108 33.4818 47.754 33.2325 47.8524C32.9879 47.9508 32.7175 48 32.4212 48Z" fill="#232323"/>
<path d="M36.5802 48C36.2275 48 35.91 47.924 35.6278 47.7719C35.3503 47.6198 35.1316 47.4095 34.9717 47.1412C34.8117 46.8683 34.7318 46.5552 34.7318 46.2018C34.7318 45.8439 34.8117 45.5308 34.9717 45.2624C35.1316 44.994 35.3503 44.786 35.6278 44.6384C35.91 44.4863 36.2275 44.4103 36.5802 44.4103C36.9047 44.4103 37.194 44.4796 37.448 44.6183C37.7067 44.7569 37.9113 44.9605 38.0618 45.2289C38.217 45.4928 38.2946 45.8171 38.2946 46.2018C38.2946 46.582 38.2193 46.9063 38.0688 47.1747C37.9183 47.4431 37.7137 47.6489 37.455 47.792C37.201 47.9307 36.9094 48 36.5802 48ZM36.6155 47.5773C36.8789 47.5773 37.114 47.5214 37.321 47.4095C37.5326 47.2932 37.6973 47.1322 37.8148 46.9264C37.9371 46.7162 37.9983 46.4746 37.9983 46.2018C37.9983 45.9244 37.9371 45.6829 37.8148 45.4771C37.6973 45.2714 37.5326 45.1126 37.321 45.0007C37.114 44.8844 36.8789 44.8263 36.6155 44.8263C36.3568 44.8263 36.124 44.8844 35.917 45.0007C35.7101 45.1126 35.5455 45.2714 35.4232 45.4771C35.3009 45.6829 35.2397 45.9244 35.2397 46.2018C35.2397 46.4746 35.3009 46.7162 35.4232 46.9264C35.5455 47.1322 35.7101 47.2932 35.917 47.4095C36.124 47.5214 36.3568 47.5773 36.6155 47.5773ZM38.0124 47.9665V46.9063L38.0618 46.1951L37.9912 45.4838V42.9878H38.4921V47.9665H38.0124Z" fill="#232323"/>
<path d="M42.2083 47.9665V47.1881L42.1871 47.0606V45.7589C42.1871 45.4592 42.0977 45.2289 41.919 45.0678C41.745 44.9068 41.4839 44.8263 41.1359 44.8263C40.896 44.8263 40.6679 44.8643 40.4515 44.9403C40.2352 45.0164 40.0518 45.117 39.9013 45.2423L39.6755 44.8867C39.8636 44.7346 40.0894 44.6183 40.3528 44.5378C40.6162 44.4528 40.8937 44.4103 41.1853 44.4103C41.665 44.4103 42.0342 44.5243 42.2929 44.7525C42.5563 44.9761 42.688 45.3183 42.688 45.7791V47.9665H42.2083ZM40.9313 48C40.6538 48 40.4116 47.9575 40.2046 47.8725C40.0024 47.7831 39.8472 47.6623 39.739 47.5102C39.6308 47.3536 39.5767 47.1747 39.5767 46.9734C39.5767 46.79 39.6214 46.6245 39.7108 46.4769C39.8048 46.3248 39.9553 46.204 40.1623 46.1146C40.3739 46.0206 40.6561 45.9737 41.0089 45.9737H42.2859V46.3293H41.023C40.6656 46.3293 40.4163 46.3897 40.2752 46.5104C40.1388 46.6312 40.0706 46.7811 40.0706 46.96C40.0706 47.1613 40.1529 47.3223 40.3175 47.4431C40.4821 47.5639 40.7126 47.6243 41.0089 47.6243C41.2911 47.6243 41.5333 47.5639 41.7356 47.4431C41.9425 47.3178 42.093 47.1389 42.1871 46.9063L42.3 47.2351C42.2059 47.4677 42.0413 47.6533 41.8061 47.792C41.5757 47.9307 41.284 48 40.9313 48Z" fill="#232323"/>
<path d="M46.283 47.9665V43.2696H46.8051V47.9665H46.283Z" fill="#232323"/>
<path d="M49.3714 47.9665V43.699H47.6358V43.2696H51.629V43.699H49.8935V47.9665H49.3714Z" fill="#232323"/>
<path d="M54.3095 47.9665V43.2696H54.8315V47.537H57.5971V47.9665H54.3095Z" fill="#232323"/>
<path d="M59.8763 48C59.4906 48 59.152 47.924 58.8604 47.7719C58.5687 47.6153 58.3406 47.4028 58.176 47.1344C58.0114 46.8616 57.9291 46.5507 57.9291 46.2018C57.9291 45.8529 58.0067 45.5442 58.1619 45.2758C58.3218 45.0074 58.5382 44.7972 58.811 44.6451C59.0885 44.4885 59.3989 44.4103 59.7422 44.4103C60.0903 44.4103 60.3984 44.4863 60.6664 44.6384C60.9392 44.786 61.1532 44.9963 61.3085 45.2691C61.4637 45.5375 61.5413 45.8484 61.5413 46.2018C61.5413 46.2241 61.5389 46.2488 61.5342 46.2756C61.5342 46.298 61.5342 46.3226 61.5342 46.3494H58.3101V45.9938H61.2661L61.0686 46.1347C61.0686 45.8797 61.0098 45.6538 60.8922 45.457C60.7793 45.2557 60.6241 45.0991 60.4266 44.9873C60.229 44.8755 60.0009 44.8196 59.7422 44.8196C59.4883 44.8196 59.2601 44.8755 59.0579 44.9873C58.8557 45.0991 58.6981 45.2557 58.5852 45.457C58.4723 45.6583 58.4159 45.8887 58.4159 46.1481V46.2219C58.4159 46.4903 58.477 46.7274 58.5993 46.9332C58.7263 47.1344 58.9003 47.2932 59.1214 47.4095C59.3472 47.5214 59.6035 47.5773 59.8904 47.5773C60.1162 47.5773 60.3255 47.5393 60.5183 47.4632C60.7158 47.3872 60.8852 47.2709 61.0263 47.1143L61.3085 47.423C61.1438 47.6108 60.9369 47.754 60.6876 47.8524C60.443 47.9508 60.1726 48 59.8763 48Z" fill="#232323"/>
<path d="M64.7786 47.9665V47.1881L64.7574 47.0606V45.7589C64.7574 45.4592 64.6681 45.2289 64.4893 45.0678C64.3153 44.9068 64.0543 44.8263 63.7062 44.8263C63.4664 44.8263 63.2382 44.8643 63.0219 44.9403C62.8055 45.0164 62.6221 45.117 62.4716 45.2423L62.2458 44.8867C62.434 44.7346 62.6597 44.6183 62.9231 44.5378C63.1865 44.4528 63.464 44.4103 63.7556 44.4103C64.2354 44.4103 64.6046 44.5243 64.8633 44.7525C65.1266 44.9761 65.2583 45.3183 65.2583 45.7791V47.9665H64.7786ZM63.5016 48C63.2241 48 62.9819 47.9575 62.775 47.8725C62.5727 47.7831 62.4175 47.6623 62.3093 47.5102C62.2012 47.3536 62.1471 47.1747 62.1471 46.9734C62.1471 46.79 62.1917 46.6245 62.2811 46.4769C62.3752 46.3248 62.5257 46.204 62.7326 46.1146C62.9443 46.0206 63.2265 45.9737 63.5792 45.9737H64.8562V46.3293H63.5933C63.2359 46.3293 62.9866 46.3897 62.8455 46.5104C62.7091 46.6312 62.6409 46.7811 62.6409 46.96C62.6409 47.1613 62.7232 47.3223 62.8878 47.4431C63.0525 47.5639 63.2829 47.6243 63.5792 47.6243C63.8614 47.6243 64.1037 47.5639 64.3059 47.4431C64.5129 47.3178 64.6634 47.1389 64.7574 46.9063L64.8703 47.2351C64.7762 47.4677 64.6116 47.6533 64.3765 47.792C64.146 47.9307 63.8544 48 63.5016 48Z" fill="#232323"/>
<path d="M68.0934 48C67.7406 48 67.4231 47.924 67.1409 47.7719C66.8634 47.6198 66.6447 47.4095 66.4848 47.1412C66.3249 46.8683 66.2449 46.5552 66.2449 46.2018C66.2449 45.8439 66.3249 45.5308 66.4848 45.2624C66.6447 44.994 66.8634 44.786 67.1409 44.6384C67.4231 44.4863 67.7406 44.4103 68.0934 44.4103C68.4179 44.4103 68.7072 44.4796 68.9611 44.6183C69.2198 44.7569 69.4244 44.9605 69.5749 45.2289C69.7301 45.4928 69.8077 45.8171 69.8077 46.2018C69.8077 46.582 69.7325 46.9063 69.582 47.1747C69.4315 47.4431 69.2269 47.6489 68.9682 47.792C68.7142 47.9307 68.4226 48 68.0934 48ZM68.1286 47.5773C68.392 47.5773 68.6272 47.5214 68.8341 47.4095C69.0458 47.2932 69.2104 47.1322 69.328 46.9264C69.4503 46.7162 69.5114 46.4746 69.5114 46.2018C69.5114 45.9244 69.4503 45.6829 69.328 45.4771C69.2104 45.2714 69.0458 45.1126 68.8341 45.0007C68.6272 44.8844 68.392 44.8263 68.1286 44.8263C67.87 44.8263 67.6371 44.8844 67.4302 45.0007C67.2232 45.1126 67.0586 45.2714 66.9363 45.4771C66.814 45.6829 66.7529 45.9244 66.7529 46.2018C66.7529 46.4746 66.814 46.7162 66.9363 46.9264C67.0586 47.1322 67.2232 47.2932 67.4302 47.4095C67.6371 47.5214 67.87 47.5773 68.1286 47.5773ZM69.5255 47.9665V46.9063L69.5749 46.1951L69.5044 45.4838V42.9878H70.0053V47.9665H69.5255Z" fill="#232323"/>
<path d="M72.9736 48C72.5879 48 72.2493 47.924 71.9576 47.7719C71.666 47.6153 71.4379 47.4028 71.2733 47.1344C71.1087 46.8616 71.0264 46.5507 71.0264 46.2018C71.0264 45.8529 71.104 45.5442 71.2592 45.2758C71.4191 45.0074 71.6355 44.7972 71.9083 44.6451C72.1858 44.4885 72.4962 44.4103 72.8395 44.4103C73.1876 44.4103 73.4956 44.4863 73.7637 44.6384C74.0365 44.786 74.2505 44.9963 74.4058 45.2691C74.561 45.5375 74.6386 45.8484 74.6386 46.2018C74.6386 46.2241 74.6362 46.2488 74.6315 46.2756C74.6315 46.298 74.6315 46.3226 74.6315 46.3494H71.4074V45.9938H74.3634L74.1659 46.1347C74.1659 45.8797 74.1071 45.6538 73.9895 45.457C73.8766 45.2557 73.7214 45.0991 73.5239 44.9873C73.3263 44.8755 73.0982 44.8196 72.8395 44.8196C72.5855 44.8196 72.3574 44.8755 72.1552 44.9873C71.9529 45.0991 71.7954 45.2557 71.6825 45.457C71.5696 45.6583 71.5132 45.8887 71.5132 46.1481V46.2219C71.5132 46.4903 71.5743 46.7274 71.6966 46.9332C71.8236 47.1344 71.9976 47.2932 72.2187 47.4095C72.4444 47.5214 72.7008 47.5773 72.9877 47.5773C73.2134 47.5773 73.4227 47.5393 73.6156 47.4632C73.8131 47.3872 73.9824 47.2709 74.1235 47.1143L74.4058 47.423C74.2411 47.6108 74.0342 47.754 73.7849 47.8524C73.5403 47.9508 73.2699 48 72.9736 48Z" fill="#232323"/>
<path d="M75.6581 47.9665V44.4438H76.1379V45.4033L76.0885 45.2356C76.192 44.9672 76.366 44.7637 76.6106 44.625C76.8551 44.4818 77.1585 44.4103 77.5207 44.4103V44.8732C77.5018 44.8732 77.483 44.8732 77.4642 44.8732C77.4454 44.8688 77.4266 44.8665 77.4078 44.8665C77.0174 44.8665 76.7117 44.9806 76.4906 45.2087C76.2696 45.4324 76.159 45.7522 76.159 46.1682V47.9665H75.6581Z" fill="#232323"/>
<path d="M80.442 47.9665V43.2696H80.9641V47.537H83.7297V47.9665H80.442Z" fill="#232323"/>
<path d="M86.8118 47.9665V47.1881L86.7906 47.0606V45.7589C86.7906 45.4592 86.7013 45.2289 86.5226 45.0678C86.3485 44.9068 86.0875 44.8263 85.7394 44.8263C85.4996 44.8263 85.2715 44.8643 85.0551 44.9403C84.8388 45.0164 84.6553 45.117 84.5048 45.2423L84.2791 44.8867C84.4672 44.7346 84.6929 44.6183 84.9563 44.5378C85.2197 44.4528 85.4972 44.4103 85.7888 44.4103C86.2686 44.4103 86.6378 44.5243 86.8965 44.7525C87.1599 44.9761 87.2916 45.3183 87.2916 45.7791V47.9665H86.8118ZM85.5349 48C85.2574 48 85.0151 47.9575 84.8082 47.8725C84.6059 47.7831 84.4507 47.6623 84.3426 47.5102C84.2344 47.3536 84.1803 47.1747 84.1803 46.9734C84.1803 46.79 84.225 46.6245 84.3143 46.4769C84.4084 46.3248 84.5589 46.204 84.7658 46.1146C84.9775 46.0206 85.2597 45.9737 85.6125 45.9737H86.8894V46.3293H85.6266C85.2691 46.3293 85.0198 46.3897 84.8787 46.5104C84.7423 46.6312 84.6741 46.7811 84.6741 46.96C84.6741 47.1613 84.7564 47.3223 84.9211 47.4431C85.0857 47.5639 85.3161 47.6243 85.6125 47.6243C85.8947 47.6243 86.1369 47.5639 86.3391 47.4431C86.5461 47.3178 86.6966 47.1389 86.7906 46.9063L86.9035 47.2351C86.8095 47.4677 86.6448 47.6533 86.4097 47.792C86.1792 47.9307 85.8876 48 85.5349 48Z" fill="#232323"/>
<path d="M90.564 48C90.2395 48 89.9479 47.9307 89.6892 47.792C89.4305 47.6489 89.2259 47.4431 89.0754 47.1747C88.9249 46.9063 88.8496 46.582 88.8496 46.2018C88.8496 45.8171 88.9249 45.4928 89.0754 45.2289C89.2306 44.9605 89.4375 44.7569 89.6962 44.6183C89.9549 44.4796 90.2442 44.4103 90.564 44.4103C90.9167 44.4103 91.2319 44.4863 91.5094 44.6384C91.7916 44.786 92.0126 44.994 92.1725 45.2624C92.3325 45.5308 92.4124 45.8439 92.4124 46.2018C92.4124 46.5552 92.3325 46.8683 92.1725 47.1412C92.0126 47.4095 91.7916 47.6198 91.5094 47.7719C91.2319 47.924 90.9167 48 90.564 48ZM88.6521 47.9665V42.9878H89.153V45.4838L89.0824 46.1951L89.1318 46.9063V47.9665H88.6521ZM90.5287 47.5773C90.7921 47.5773 91.0273 47.5214 91.2342 47.4095C91.4412 47.2932 91.6058 47.1322 91.7281 46.9264C91.8504 46.7162 91.9115 46.4746 91.9115 46.2018C91.9115 45.9244 91.8504 45.6829 91.7281 45.4771C91.6058 45.2714 91.4412 45.1126 91.2342 45.0007C91.0273 44.8844 90.7921 44.8263 90.5287 44.8263C90.2653 44.8263 90.0278 44.8844 89.8162 45.0007C89.6092 45.1126 89.4446 45.2714 89.3223 45.4771C89.2047 45.6829 89.1459 45.9244 89.1459 46.2018C89.1459 46.4746 89.2047 46.7162 89.3223 46.9264C89.4446 47.1322 89.6092 47.2932 89.8162 47.4095C90.0278 47.5214 90.2653 47.5773 90.5287 47.5773Z" fill="#232323"/>
</g>
</g>
</svg>
