<svg width="142" height="40" viewBox="0 0 142 40" fill="none" xmlns="http://www.w3.org/2000/svg">
<g id="WILL">
<path d="M51.6227 0V1.11759C50.9134 1.2666 50.1294 1.69501 49.2707 2.40282C48.4121 3.07337 47.7214 4.26547 47.1988 5.97911L36.6149 39.8421C36.5403 39.8421 36.4656 39.8421 36.3909 39.8421C36.3163 39.8421 36.2416 39.8421 36.1669 39.8421C36.0923 39.8421 36.0176 39.8421 35.9429 39.8421C35.8683 39.8421 35.7936 39.8421 35.7189 39.8421L23.8471 4.69388C23.3618 3.24101 22.8205 2.29106 22.2231 1.84402C21.6258 1.39699 21.0658 1.15484 20.5432 1.11759V0C21.2151 0.0372525 22.0551 0.0745048 23.0631 0.111757C24.0711 0.14901 25.0418 0.167636 25.9751 0.167636C27.4311 0.167636 28.7937 0.14901 30.063 0.111757C31.3323 0.0745048 32.359 0.0372525 33.143 0V1.11759C32.023 1.15484 31.127 1.2666 30.455 1.45286C29.8204 1.63913 29.447 2.04891 29.335 2.68221C29.2604 3.31552 29.447 4.3586 29.895 5.81147L38.2389 31.5719L37.4549 32.2425L44.8468 9.05248C45.5188 7.00357 45.8174 5.42031 45.7428 4.30272C45.7054 3.14787 45.2948 2.34694 44.5108 1.8999C43.7268 1.41561 42.5508 1.15484 40.9828 1.11759V0C42.0655 0.0372525 43.1668 0.0745048 44.2868 0.111757C45.4068 0.14901 46.4521 0.167636 47.4228 0.167636C48.3934 0.167636 49.1961 0.14901 49.8307 0.111757C50.4654 0.0745048 51.0627 0.0372525 51.6227 0ZM12.4793 0V1.11759C11.5086 1.19209 10.7993 1.37836 10.3513 1.67638C9.94065 1.97441 9.73531 2.4587 9.73531 3.12925C9.77265 3.76255 9.97798 4.65662 10.3513 5.81147L19.0312 32.2425L17.6312 33.6395L25.4711 8.66132L26.3111 10.0024L17.0712 39.8421C16.9965 39.8421 16.9219 39.8421 16.8472 39.8421C16.7725 39.8421 16.6979 39.8421 16.6232 39.8421C16.5485 39.8421 16.4739 39.8421 16.3992 39.8421C16.3246 39.8421 16.2499 39.8421 16.1752 39.8421L4.3034 4.69388C3.81807 3.24101 3.20208 2.29106 2.45542 1.84402C1.70877 1.39699 1.03678 1.15484 0.439453 1.11759V0C1.18611 0.0372525 2.10076 0.0745048 3.18341 0.111757C4.3034 0.14901 5.38605 0.167636 6.43136 0.167636C7.66335 0.167636 8.802 0.14901 9.84731 0.111757C10.93 0.0745048 11.8073 0.0372525 12.4793 0Z" fill="black"/>
<path d="M70.9577 0V1.11759C69.6884 1.15484 68.7177 1.30385 68.0458 1.56463C67.4111 1.78814 66.9818 2.23518 66.7578 2.90573C66.5338 3.53903 66.4218 4.54486 66.4218 5.92323V33.6395C66.4218 34.9806 66.5338 35.9864 66.7578 36.657C66.9818 37.3275 67.4111 37.7746 68.0458 37.9981C68.7177 38.2216 69.6884 38.3706 70.9577 38.4451V39.5627C70.0991 39.4882 69.0164 39.4509 67.7098 39.4509C66.4404 39.4137 65.1525 39.3951 63.8458 39.3951C62.3898 39.3951 61.0272 39.4137 59.7579 39.4509C58.4886 39.4509 57.4619 39.4882 56.6779 39.5627V38.4451C57.9472 38.3706 58.8992 38.2216 59.5339 37.9981C60.2059 37.7746 60.6539 37.3275 60.8779 36.657C61.1019 35.9864 61.2139 34.9806 61.2139 33.6395V5.92323C61.2139 4.54486 61.1019 3.53903 60.8779 2.90573C60.6539 2.23518 60.2059 1.78814 59.5339 1.56463C58.8992 1.30385 57.9472 1.15484 56.6779 1.11759V0C57.4619 0.0372525 58.4886 0.0745048 59.7579 0.111757C61.0272 0.14901 62.3898 0.167636 63.8458 0.167636C65.1525 0.167636 66.4404 0.14901 67.7098 0.111757C69.0164 0.0745048 70.0991 0.0372525 70.9577 0Z" fill="black"/>
<path d="M93.2939 0V1.11759C92.0246 1.15484 91.054 1.30385 90.382 1.56463C89.7473 1.78814 89.318 2.23518 89.094 2.90573C88.87 3.53903 88.758 4.54486 88.758 5.92323V33.6395C88.758 34.9806 88.87 35.9864 89.094 36.657C89.318 37.3275 89.7473 37.7746 90.382 37.9981C91.054 38.1843 92.0246 38.2775 93.2939 38.2775H97.3819C99.1365 38.2775 100.555 38.0912 101.638 37.7187C102.758 37.3461 103.635 36.7687 104.27 35.9864C104.942 35.1668 105.446 34.0865 105.782 32.7454C106.118 31.4043 106.379 29.7652 106.566 27.828H107.854C107.742 28.9828 107.686 30.5102 107.686 32.4101C107.686 33.1179 107.704 34.1424 107.742 35.4835C107.816 36.7873 107.928 38.1471 108.078 39.5627C106.174 39.4882 104.027 39.4509 101.638 39.4509C99.2485 39.4137 97.1206 39.3951 95.2539 39.3951C94.4326 39.3951 93.3686 39.3951 92.062 39.3951C90.7926 39.3951 89.4113 39.4137 87.918 39.4509C86.4247 39.4509 84.9127 39.4696 83.3821 39.5068C81.8514 39.5068 80.3955 39.5254 79.0142 39.5627V38.4451C80.2835 38.3706 81.2355 38.2216 81.8701 37.9981C82.5421 37.7746 82.9901 37.3275 83.2141 36.657C83.4381 35.9864 83.5501 34.9806 83.5501 33.6395V5.92323C83.5501 4.54486 83.4381 3.53903 83.2141 2.90573C82.9901 2.23518 82.5421 1.78814 81.8701 1.56463C81.2355 1.30385 80.2835 1.15484 79.0142 1.11759V0C79.7981 0.0372525 80.8248 0.0745048 82.0941 0.111757C83.3634 0.14901 84.7261 0.167636 86.182 0.167636C87.4887 0.167636 88.7767 0.14901 90.046 0.111757C91.3526 0.0745048 92.4353 0.0372525 93.2939 0Z" fill="black"/>
<path d="M126.775 0V1.11759C125.506 1.15484 124.535 1.30385 123.863 1.56463C123.229 1.78814 122.799 2.23518 122.575 2.90573C122.351 3.53903 122.239 4.54486 122.239 5.92323V33.6395C122.239 34.9806 122.351 35.9864 122.575 36.657C122.799 37.3275 123.229 37.7746 123.863 37.9981C124.535 38.1843 125.506 38.2775 126.775 38.2775H130.863C132.618 38.2775 134.037 38.0912 135.119 37.7187C136.239 37.3461 137.116 36.7687 137.751 35.9864C138.423 35.1668 138.927 34.0865 139.263 32.7454C139.599 31.4043 139.86 29.7652 140.047 27.828H141.335C141.223 28.9828 141.167 30.5102 141.167 32.4101C141.167 33.1179 141.186 34.1424 141.223 35.4835C141.298 36.7873 141.41 38.1471 141.559 39.5627C139.655 39.4882 137.508 39.4509 135.119 39.4509C132.73 39.4137 130.602 39.3951 128.735 39.3951C127.914 39.3951 126.85 39.3951 125.543 39.3951C124.274 39.3951 122.893 39.4137 121.399 39.4509C119.906 39.4509 118.394 39.4696 116.863 39.5068C115.333 39.5068 113.877 39.5254 112.496 39.5627V38.4451C113.765 38.3706 114.717 38.2216 115.351 37.9981C116.023 37.7746 116.471 37.3275 116.695 36.657C116.919 35.9864 117.031 34.9806 117.031 33.6395V5.92323C117.031 4.54486 116.919 3.53903 116.695 2.90573C116.471 2.23518 116.023 1.78814 115.351 1.56463C114.717 1.30385 113.765 1.15484 112.496 1.11759V0C113.28 0.0372525 114.306 0.0745048 115.575 0.111757C116.845 0.14901 118.207 0.167636 119.663 0.167636C120.97 0.167636 122.258 0.14901 123.527 0.111757C124.834 0.0745048 125.917 0.0372525 126.775 0Z" fill="black"/>
</g>
</svg>
