<svg width="43" height="42" viewBox="0 0 43 42" fill="none" xmlns="http://www.w3.org/2000/svg">
<g id="instagram">
<path id="Vector" d="M13.734 3.5H28.434C34.034 3.5 38.584 8.05 38.584 13.65V28.35C38.584 31.0419 37.5146 33.6236 35.6111 35.5271C33.7076 37.4306 31.1259 38.5 28.434 38.5H13.734C8.13398 38.5 3.58398 33.95 3.58398 28.35V13.65C3.58398 10.9581 4.65336 8.37636 6.55685 6.47287C8.46034 4.56937 11.042 3.5 13.734 3.5ZM13.384 7C11.7131 7 10.1107 7.66375 8.92921 8.84523C7.74773 10.0267 7.08398 11.6291 7.08398 13.3V28.7C7.08398 32.1825 9.90148 35 13.384 35H28.784C30.4548 35 32.0573 34.3363 33.2388 33.1548C34.4202 31.9733 35.084 30.3709 35.084 28.7V13.3C35.084 9.8175 32.2665 7 28.784 7H13.384ZM30.2715 9.625C30.8516 9.625 31.408 9.85547 31.8183 10.2657C32.2285 10.6759 32.459 11.2323 32.459 11.8125C32.459 12.3927 32.2285 12.9491 31.8183 13.3593C31.408 13.7695 30.8516 14 30.2715 14C29.6913 14 29.1349 13.7695 28.7247 13.3593C28.3145 12.9491 28.084 12.3927 28.084 11.8125C28.084 11.2323 28.3145 10.6759 28.7247 10.2657C29.1349 9.85547 29.6913 9.625 30.2715 9.625ZM21.084 12.25C23.4046 12.25 25.6302 13.1719 27.2712 14.8128C28.9121 16.4538 29.834 18.6794 29.834 21C29.834 23.3206 28.9121 25.5462 27.2712 27.1872C25.6302 28.8281 23.4046 29.75 21.084 29.75C18.7633 29.75 16.5377 28.8281 14.8968 27.1872C13.2559 25.5462 12.334 23.3206 12.334 21C12.334 18.6794 13.2559 16.4538 14.8968 14.8128C16.5377 13.1719 18.7633 12.25 21.084 12.25ZM21.084 15.75C19.6916 15.75 18.3562 16.3031 17.3717 17.2877C16.3871 18.2723 15.834 19.6076 15.834 21C15.834 22.3924 16.3871 23.7277 17.3717 24.7123C18.3562 25.6969 19.6916 26.25 21.084 26.25C22.4764 26.25 23.8117 25.6969 24.7963 24.7123C25.7809 23.7277 26.334 22.3924 26.334 21C26.334 19.6076 25.7809 18.2723 24.7963 17.2877C23.8117 16.3031 22.4764 15.75 21.084 15.75Z" fill="#535353"/>
</g>
</svg>
