<svg width="60" height="101" viewBox="0 0 60 101" fill="none" xmlns="http://www.w3.org/2000/svg">
<path d="M53.4111 94.9541C53.2743 94.9215 53.0911 94.8655 52.8564 94.7705C51.9785 94.4151 50.6861 93.6196 49.1084 92.0947L49.0938 92.0801L7.82715 52.46C7.12704 51.7711 6.66 51.2546 6.35156 50.873C6.66341 50.4873 7.13764 49.9639 7.85059 49.2637L7.85938 49.2549L49.1426 8.54199C50.6704 7.04144 51.8613 6.37752 52.5781 6.12793C52.7908 6.05391 52.9413 6.02309 53.0391 6.00977C53.1046 6.09566 53.1987 6.24084 53.3076 6.47559C53.6416 7.19586 54 8.54055 54 10.6904V91.2178C54 93.2828 53.6589 94.4335 53.4111 94.9541Z" fill="#FFFFF0" stroke="#FFFCF7" stroke-width="12"/>
</svg>
