<svg width="60" height="101" viewBox="0 0 60 101" fill="none" xmlns="http://www.w3.org/2000/svg">
<path d="M6.58887 6.0459C6.72574 6.07852 6.90889 6.1345 7.14355 6.22949C8.02149 6.58487 9.3139 7.38039 10.8916 8.90527L10.9062 8.91992L52.1729 48.54C52.873 49.2289 53.34 49.7454 53.6484 50.127C53.3366 50.5127 52.8624 51.0361 52.1494 51.7363L52.1406 51.7451L10.8574 92.458C9.32959 93.9586 8.13875 94.6225 7.42188 94.8721C7.2092 94.9461 7.05869 94.9769 6.96094 94.9902C6.89544 94.9043 6.80127 94.7592 6.69238 94.5244C6.35839 93.8041 6 92.4594 6 90.3096V9.78223C6 7.7172 6.34111 6.5665 6.58887 6.0459Z" stroke="#FFFCF7" stroke-width="12"/>
</svg>
